M48
INCH,TZ
T1C0.0157
T2C0.0315
T3C0.0394
T4C0.0461
T5C0.0591
%
G90
G05
T1
X65700Y-36200
X65700Y-37300
X65700Y-38400
T2
X49941Y-29560
X52060Y-39660
X53054Y-35860
X53054Y-37760
X55466Y-35860
X55466Y-37760
X56560Y-39660
X59664Y-30598
X61160Y-33760
X61160Y-34760
X66000Y-31760
X66160Y-29560
X59660Y-31760
X59660Y-32760
X59660Y-33760
X59660Y-34760
X59660Y-35760
X59660Y-36760
X59660Y-37760
X59660Y-38760
X59660Y-39760
X62660Y-31760
X62660Y-32760
X62660Y-33760
X62660Y-34760
X62660Y-35760
X62660Y-36760
X62660Y-37760
X62660Y-38760
X62660Y-39760
X50460Y-41348
X50460Y-42135
X51247Y-41348
X51247Y-42135
X52035Y-41348
X52035Y-42135
X52822Y-41348
X52822Y-42135
X53610Y-41348
X53610Y-42135
X54397Y-41348
X54397Y-42135
X55184Y-41348
X55184Y-42135
X55972Y-41348
X55972Y-42135
X56759Y-41348
X56759Y-42135
X57547Y-41348
X57547Y-42135
X58334Y-41348
X58334Y-42135
X59121Y-41348
X59121Y-42135
X59909Y-41348
X59909Y-42135
X60696Y-41348
X60696Y-42135
X61484Y-41348
X61484Y-42135
X62271Y-41348
X62271Y-42135
X63058Y-41348
X63058Y-42135
X63846Y-41348
X63846Y-42135
X64633Y-41348
X64633Y-42135
X65421Y-41348
X65421Y-42135
T3
X50600Y-31500
X51600Y-31500
T4
X54300Y-39150
T5
X54300Y-31276
T0
M30
