G04 #@! TF.GenerationSoftware,KiCad,Pcbnew,5.0.2-bee76a0~70~ubuntu16.04.1*
G04 #@! TF.CreationDate,2019-02-17T17:32:44+01:00*
G04 #@! TF.ProjectId,OpenA1200RTC,4f70656e-4131-4323-9030-5254432e6b69,1.0*
G04 #@! TF.SameCoordinates,Original*
G04 #@! TF.FileFunction,Copper,L2,Bot*
G04 #@! TF.FilePolarity,Positive*
%FSLAX46Y46*%
G04 Gerber Fmt 4.6, Leading zero omitted, Abs format (unit mm)*
G04 Created by KiCad (PCBNEW 5.0.2-bee76a0~70~ubuntu16.04.1) date dom 17 feb 2019 17:32:44 CET*
%MOMM*%
%LPD*%
G01*
G04 APERTURE LIST*
G04 #@! TA.AperFunction,ComponentPad*
%ADD10O,1.600000X1.600000*%
G04 #@! TD*
G04 #@! TA.AperFunction,ComponentPad*
%ADD11R,1.600000X1.600000*%
G04 #@! TD*
G04 #@! TA.AperFunction,ComponentPad*
%ADD12O,1.700000X1.700000*%
G04 #@! TD*
G04 #@! TA.AperFunction,ComponentPad*
%ADD13R,1.700000X1.700000*%
G04 #@! TD*
G04 #@! TA.AperFunction,ComponentPad*
%ADD14R,2.170000X2.170000*%
G04 #@! TD*
G04 #@! TA.AperFunction,ComponentPad*
%ADD15C,2.500000*%
G04 #@! TD*
G04 #@! TA.AperFunction,ComponentPad*
%ADD16O,1.350000X1.350000*%
G04 #@! TD*
G04 #@! TA.AperFunction,ComponentPad*
%ADD17R,1.350000X1.350000*%
G04 #@! TD*
G04 #@! TA.AperFunction,ViaPad*
%ADD18C,0.500000*%
G04 #@! TD*
G04 #@! TA.AperFunction,ViaPad*
%ADD19C,1.000000*%
G04 #@! TD*
G04 #@! TA.AperFunction,Conductor*
%ADD20C,0.200000*%
G04 #@! TD*
G04 #@! TA.AperFunction,Conductor*
%ADD21C,0.500000*%
G04 #@! TD*
G04 #@! TA.AperFunction,Conductor*
%ADD22C,0.254000*%
G04 #@! TD*
G04 APERTURE END LIST*
D10*
G04 #@! TO.P,U1,18*
G04 #@! TO.N,VDD*
X159156400Y-80670400D03*
G04 #@! TO.P,U1,9*
G04 #@! TO.N,GND*
X151536400Y-100990400D03*
G04 #@! TO.P,U1,17*
G04 #@! TO.N,Net-(U1-Pad17)*
X159156400Y-83210400D03*
G04 #@! TO.P,U1,8*
G04 #@! TO.N,Net-(J1-Pad25)*
X151536400Y-98450400D03*
G04 #@! TO.P,U1,16*
G04 #@! TO.N,Net-(U1-Pad16)*
X159156400Y-85750400D03*
G04 #@! TO.P,U1,7*
G04 #@! TO.N,/RTC_A3*
X151536400Y-95910400D03*
G04 #@! TO.P,U1,15*
G04 #@! TO.N,Net-(R1-Pad2)*
X159156400Y-88290400D03*
G04 #@! TO.P,U1,6*
G04 #@! TO.N,/RTC_A2*
X151536400Y-93370400D03*
G04 #@! TO.P,U1,14*
G04 #@! TO.N,/RTC_D0*
X159156400Y-90830400D03*
G04 #@! TO.P,U1,5*
G04 #@! TO.N,/RTC_A1*
X151536400Y-90830400D03*
G04 #@! TO.P,U1,13*
G04 #@! TO.N,/RTC_D1*
X159156400Y-93370400D03*
G04 #@! TO.P,U1,4*
G04 #@! TO.N,/RTC_A0*
X151536400Y-88290400D03*
G04 #@! TO.P,U1,12*
G04 #@! TO.N,/RTC_D2*
X159156400Y-95910400D03*
G04 #@! TO.P,U1,3*
G04 #@! TO.N,Net-(R1-Pad2)*
X151536400Y-85750400D03*
G04 #@! TO.P,U1,11*
G04 #@! TO.N,/RTC_D3*
X159156400Y-98450400D03*
G04 #@! TO.P,U1,2*
G04 #@! TO.N,Net-(JP1-Pad2)*
X151536400Y-83210400D03*
G04 #@! TO.P,U1,10*
G04 #@! TO.N,Net-(J1-Pad26)*
X159156400Y-100990400D03*
D11*
G04 #@! TO.P,U1,1*
G04 #@! TO.N,Net-(R3-Pad2)*
X151536400Y-80670400D03*
G04 #@! TD*
D12*
G04 #@! TO.P,JP1,2*
G04 #@! TO.N,Net-(JP1-Pad2)*
X131064000Y-80010000D03*
D13*
G04 #@! TO.P,JP1,1*
G04 #@! TO.N,Net-(J1-Pad23)*
X128524000Y-80010000D03*
G04 #@! TD*
D14*
G04 #@! TO.P,BT1,2*
G04 #@! TO.N,GND*
X137922000Y-99441000D03*
D15*
G04 #@! TO.P,BT1,1*
G04 #@! TO.N,Net-(BT1-Pad1)*
X137922000Y-79441000D03*
G04 #@! TD*
D16*
G04 #@! TO.P,J1,40*
G04 #@! TO.N,Net-(J1-Pad40)*
X166168400Y-105022900D03*
G04 #@! TO.P,J1,39*
G04 #@! TO.N,GND*
X166168400Y-107022900D03*
G04 #@! TO.P,J1,38*
G04 #@! TO.N,/RTC_D0*
X164168400Y-105022900D03*
G04 #@! TO.P,J1,37*
G04 #@! TO.N,/RTC_D1*
X164168400Y-107022900D03*
G04 #@! TO.P,J1,36*
G04 #@! TO.N,/RTC_D2*
X162168400Y-105022900D03*
G04 #@! TO.P,J1,35*
G04 #@! TO.N,/RTC_D3*
X162168400Y-107022900D03*
G04 #@! TO.P,J1,34*
G04 #@! TO.N,Net-(J1-Pad34)*
X160168400Y-105022900D03*
G04 #@! TO.P,J1,33*
G04 #@! TO.N,Net-(J1-Pad33)*
X160168400Y-107022900D03*
G04 #@! TO.P,J1,32*
G04 #@! TO.N,Net-(J1-Pad32)*
X158168400Y-105022900D03*
G04 #@! TO.P,J1,31*
G04 #@! TO.N,Net-(J1-Pad31)*
X158168400Y-107022900D03*
G04 #@! TO.P,J1,30*
G04 #@! TO.N,/RTC_A0*
X156168400Y-105022900D03*
G04 #@! TO.P,J1,29*
G04 #@! TO.N,/RTC_A1*
X156168400Y-107022900D03*
G04 #@! TO.P,J1,28*
G04 #@! TO.N,/RTC_A2*
X154168400Y-105022900D03*
G04 #@! TO.P,J1,27*
G04 #@! TO.N,/RTC_A3*
X154168400Y-107022900D03*
G04 #@! TO.P,J1,26*
G04 #@! TO.N,Net-(J1-Pad26)*
X152168400Y-105022900D03*
G04 #@! TO.P,J1,25*
G04 #@! TO.N,Net-(J1-Pad25)*
X152168400Y-107022900D03*
G04 #@! TO.P,J1,24*
G04 #@! TO.N,Net-(J1-Pad24)*
X150168400Y-105022900D03*
G04 #@! TO.P,J1,23*
G04 #@! TO.N,Net-(J1-Pad23)*
X150168400Y-107022900D03*
G04 #@! TO.P,J1,22*
G04 #@! TO.N,Net-(J1-Pad22)*
X148168400Y-105022900D03*
G04 #@! TO.P,J1,21*
G04 #@! TO.N,Net-(J1-Pad21)*
X148168400Y-107022900D03*
G04 #@! TO.P,J1,20*
G04 #@! TO.N,VCC*
X146168400Y-105022900D03*
G04 #@! TO.P,J1,19*
G04 #@! TO.N,GND*
X146168400Y-107022900D03*
G04 #@! TO.P,J1,18*
G04 #@! TO.N,Net-(J1-Pad18)*
X144168400Y-105022900D03*
G04 #@! TO.P,J1,17*
G04 #@! TO.N,Net-(J1-Pad17)*
X144168400Y-107022900D03*
G04 #@! TO.P,J1,16*
G04 #@! TO.N,Net-(J1-Pad16)*
X142168400Y-105022900D03*
G04 #@! TO.P,J1,15*
G04 #@! TO.N,Net-(J1-Pad15)*
X142168400Y-107022900D03*
G04 #@! TO.P,J1,14*
G04 #@! TO.N,Net-(J1-Pad14)*
X140168400Y-105022900D03*
G04 #@! TO.P,J1,13*
G04 #@! TO.N,Net-(J1-Pad13)*
X140168400Y-107022900D03*
G04 #@! TO.P,J1,12*
G04 #@! TO.N,Net-(J1-Pad12)*
X138168400Y-105022900D03*
G04 #@! TO.P,J1,11*
G04 #@! TO.N,Net-(J1-Pad11)*
X138168400Y-107022900D03*
G04 #@! TO.P,J1,10*
G04 #@! TO.N,Net-(J1-Pad10)*
X136168400Y-105022900D03*
G04 #@! TO.P,J1,9*
G04 #@! TO.N,Net-(J1-Pad9)*
X136168400Y-107022900D03*
G04 #@! TO.P,J1,8*
G04 #@! TO.N,Net-(J1-Pad8)*
X134168400Y-105022900D03*
G04 #@! TO.P,J1,7*
G04 #@! TO.N,Net-(J1-Pad7)*
X134168400Y-107022900D03*
G04 #@! TO.P,J1,6*
G04 #@! TO.N,Net-(J1-Pad6)*
X132168400Y-105022900D03*
G04 #@! TO.P,J1,5*
G04 #@! TO.N,Net-(J1-Pad5)*
X132168400Y-107022900D03*
G04 #@! TO.P,J1,4*
G04 #@! TO.N,Net-(J1-Pad4)*
X130168400Y-105022900D03*
G04 #@! TO.P,J1,3*
G04 #@! TO.N,Net-(J1-Pad3)*
X130168400Y-107022900D03*
G04 #@! TO.P,J1,2*
G04 #@! TO.N,Net-(J1-Pad2)*
X128168400Y-105022900D03*
D17*
G04 #@! TO.P,J1,1*
G04 #@! TO.N,Net-(J1-Pad1)*
X128168400Y-107022900D03*
G04 #@! TD*
D18*
G04 #@! TO.N,Net-(R1-Pad2)*
X166878000Y-97536000D03*
G04 #@! TO.N,Net-(JP1-Pad2)*
X166878000Y-94742000D03*
G04 #@! TO.N,Net-(R3-Pad2)*
X166878000Y-91948000D03*
D19*
G04 #@! TO.N,VDD*
X167640000Y-80670400D03*
X151546560Y-77718920D03*
G04 #@! TO.N,GND*
X140884400Y-95910400D03*
X134756400Y-95910400D03*
X132232400Y-100736400D03*
X143662400Y-100736400D03*
X168046400Y-75082400D03*
X126849400Y-75082400D03*
X140884400Y-91084400D03*
X134756400Y-91084400D03*
X155346400Y-85750400D03*
X155346400Y-88290400D03*
G04 #@! TD*
D20*
G04 #@! TO.N,Net-(R1-Pad2)*
X160616900Y-88290400D02*
X159156400Y-88290400D01*
X162814000Y-90487500D02*
X160616900Y-88290400D01*
X162814000Y-93472000D02*
X163169600Y-93827600D01*
X162814000Y-90487500D02*
X162814000Y-93472000D01*
X166878000Y-97536000D02*
X163169600Y-93827600D01*
G04 #@! TO.N,Net-(JP1-Pad2)*
X156870400Y-84480400D02*
X155600400Y-83210400D01*
X160553400Y-84480400D02*
X156870400Y-84480400D01*
X164998400Y-92862400D02*
X164998400Y-88925400D01*
X164998400Y-88925400D02*
X160553400Y-84480400D01*
X155600400Y-83210400D02*
X151536400Y-83210400D01*
X164998400Y-92862400D02*
X166878000Y-94742000D01*
X134264400Y-83210400D02*
X131064000Y-80010000D01*
X151536400Y-83210400D02*
X134264400Y-83210400D01*
G04 #@! TO.N,Net-(R3-Pad2)*
X152806400Y-81940400D02*
X151536400Y-80670400D01*
X160680400Y-81940400D02*
X152806400Y-81940400D01*
X166878000Y-88138000D02*
X160680400Y-81940400D01*
X166878000Y-91948000D02*
X166878000Y-88138000D01*
D21*
G04 #@! TO.N,VDD*
X156448760Y-80670400D02*
X153497280Y-77718920D01*
X159156400Y-80670400D02*
X156448760Y-80670400D01*
X151546560Y-77718920D02*
X153497280Y-77718920D01*
X167640000Y-80670400D02*
X159156400Y-80670400D01*
G04 #@! TO.N,GND*
X155346400Y-85750400D02*
X155346400Y-88290400D01*
X143916400Y-100990400D02*
X143662400Y-100736400D01*
X140884400Y-91084400D02*
X134756400Y-91084400D01*
X153672540Y-100990400D02*
X151536400Y-100990400D01*
X155346400Y-99316540D02*
X153672540Y-100990400D01*
X155346400Y-88290400D02*
X155346400Y-99316540D01*
X151536400Y-100990400D02*
X143916400Y-100990400D01*
D20*
G04 #@! TO.N,/RTC_D1*
X164168400Y-107022900D02*
X164168400Y-107018400D01*
X164168400Y-107018400D02*
X163195000Y-106045000D01*
X163195000Y-97409000D02*
X159156400Y-93370400D01*
X163195000Y-106045000D02*
X163195000Y-97409000D01*
G04 #@! TO.N,/RTC_D2*
X162168400Y-98922400D02*
X159156400Y-95910400D01*
X162168400Y-105022900D02*
X162168400Y-98922400D01*
G04 #@! TO.N,/RTC_D3*
X162168400Y-107022900D02*
X162168400Y-106694800D01*
X162168400Y-106694800D02*
X161137600Y-105664000D01*
X159156400Y-98450400D02*
X159164020Y-98450400D01*
X159545020Y-98450400D02*
X161137600Y-100042980D01*
X159156400Y-98450400D02*
X159545020Y-98450400D01*
X161137600Y-105664000D02*
X161137600Y-100042980D01*
G04 #@! TO.N,Net-(J1-Pad26)*
X152168400Y-104460500D02*
X152168400Y-105022900D01*
X153758900Y-102870000D02*
X152168400Y-104460500D01*
X157276800Y-102870000D02*
X153758900Y-102870000D01*
X159156400Y-100990400D02*
X157276800Y-102870000D01*
G04 #@! TO.N,Net-(J1-Pad23)*
X128422400Y-79502000D02*
X128447800Y-79476600D01*
X149225000Y-106045000D02*
X150168400Y-106988400D01*
X149225000Y-104394000D02*
X149225000Y-106045000D01*
X128524000Y-100076000D02*
X131318000Y-102870000D01*
X131318000Y-102870000D02*
X147701000Y-102870000D01*
X147701000Y-102870000D02*
X149225000Y-104394000D01*
X128524000Y-80010000D02*
X128524000Y-100076000D01*
G04 #@! TD*
D22*
G04 #@! TO.N,GND*
G36*
X168609187Y-74058465D02*
X168774320Y-74153805D01*
X168896888Y-74299877D01*
X168972955Y-74508865D01*
X168981400Y-74605396D01*
X168981401Y-107726275D01*
X168937335Y-107976187D01*
X168841996Y-108141319D01*
X168695924Y-108263888D01*
X168486932Y-108339955D01*
X168390404Y-108348400D01*
X126536519Y-108348400D01*
X126286613Y-108304335D01*
X126121481Y-108208996D01*
X125998912Y-108062924D01*
X125922845Y-107853932D01*
X125914400Y-107757404D01*
X125914400Y-105022900D01*
X126832736Y-105022900D01*
X126934407Y-105534036D01*
X127130114Y-105826932D01*
X127035591Y-105890091D01*
X126895243Y-106100135D01*
X126845960Y-106347900D01*
X126845960Y-107697900D01*
X126895243Y-107945665D01*
X127035591Y-108155709D01*
X127245635Y-108296057D01*
X127493400Y-108345340D01*
X128843400Y-108345340D01*
X129091165Y-108296057D01*
X129301209Y-108155709D01*
X129364368Y-108061186D01*
X129657264Y-108256893D01*
X130039378Y-108332900D01*
X130297422Y-108332900D01*
X130679536Y-108256893D01*
X131112857Y-107967357D01*
X131168400Y-107884231D01*
X131223943Y-107967357D01*
X131657264Y-108256893D01*
X132039378Y-108332900D01*
X132297422Y-108332900D01*
X132679536Y-108256893D01*
X133112857Y-107967357D01*
X133168400Y-107884231D01*
X133223943Y-107967357D01*
X133657264Y-108256893D01*
X134039378Y-108332900D01*
X134297422Y-108332900D01*
X134679536Y-108256893D01*
X135112857Y-107967357D01*
X135168400Y-107884231D01*
X135223943Y-107967357D01*
X135657264Y-108256893D01*
X136039378Y-108332900D01*
X136297422Y-108332900D01*
X136679536Y-108256893D01*
X137112857Y-107967357D01*
X137168400Y-107884231D01*
X137223943Y-107967357D01*
X137657264Y-108256893D01*
X138039378Y-108332900D01*
X138297422Y-108332900D01*
X138679536Y-108256893D01*
X139112857Y-107967357D01*
X139168400Y-107884231D01*
X139223943Y-107967357D01*
X139657264Y-108256893D01*
X140039378Y-108332900D01*
X140297422Y-108332900D01*
X140679536Y-108256893D01*
X141112857Y-107967357D01*
X141168400Y-107884231D01*
X141223943Y-107967357D01*
X141657264Y-108256893D01*
X142039378Y-108332900D01*
X142297422Y-108332900D01*
X142679536Y-108256893D01*
X143112857Y-107967357D01*
X143168400Y-107884231D01*
X143223943Y-107967357D01*
X143657264Y-108256893D01*
X144039378Y-108332900D01*
X144297422Y-108332900D01*
X144679536Y-108256893D01*
X145112857Y-107967357D01*
X145181556Y-107864542D01*
X145504767Y-108152378D01*
X145839000Y-108290810D01*
X146041400Y-108167124D01*
X146041400Y-107149900D01*
X146021400Y-107149900D01*
X146021400Y-106895900D01*
X146041400Y-106895900D01*
X146041400Y-106875900D01*
X146295400Y-106875900D01*
X146295400Y-106895900D01*
X146315400Y-106895900D01*
X146315400Y-107149900D01*
X146295400Y-107149900D01*
X146295400Y-108167124D01*
X146497800Y-108290810D01*
X146832033Y-108152378D01*
X147155244Y-107864542D01*
X147223943Y-107967357D01*
X147657264Y-108256893D01*
X148039378Y-108332900D01*
X148297422Y-108332900D01*
X148679536Y-108256893D01*
X149112857Y-107967357D01*
X149168400Y-107884231D01*
X149223943Y-107967357D01*
X149657264Y-108256893D01*
X150039378Y-108332900D01*
X150297422Y-108332900D01*
X150679536Y-108256893D01*
X151112857Y-107967357D01*
X151168400Y-107884231D01*
X151223943Y-107967357D01*
X151657264Y-108256893D01*
X152039378Y-108332900D01*
X152297422Y-108332900D01*
X152679536Y-108256893D01*
X153112857Y-107967357D01*
X153168400Y-107884231D01*
X153223943Y-107967357D01*
X153657264Y-108256893D01*
X154039378Y-108332900D01*
X154297422Y-108332900D01*
X154679536Y-108256893D01*
X155112857Y-107967357D01*
X155168400Y-107884231D01*
X155223943Y-107967357D01*
X155657264Y-108256893D01*
X156039378Y-108332900D01*
X156297422Y-108332900D01*
X156679536Y-108256893D01*
X157112857Y-107967357D01*
X157168400Y-107884231D01*
X157223943Y-107967357D01*
X157657264Y-108256893D01*
X158039378Y-108332900D01*
X158297422Y-108332900D01*
X158679536Y-108256893D01*
X159112857Y-107967357D01*
X159168400Y-107884231D01*
X159223943Y-107967357D01*
X159657264Y-108256893D01*
X160039378Y-108332900D01*
X160297422Y-108332900D01*
X160679536Y-108256893D01*
X161112857Y-107967357D01*
X161168400Y-107884231D01*
X161223943Y-107967357D01*
X161657264Y-108256893D01*
X162039378Y-108332900D01*
X162297422Y-108332900D01*
X162679536Y-108256893D01*
X163112857Y-107967357D01*
X163168400Y-107884231D01*
X163223943Y-107967357D01*
X163657264Y-108256893D01*
X164039378Y-108332900D01*
X164297422Y-108332900D01*
X164679536Y-108256893D01*
X165112857Y-107967357D01*
X165181556Y-107864542D01*
X165504767Y-108152378D01*
X165839000Y-108290810D01*
X166041400Y-108167124D01*
X166041400Y-107149900D01*
X166295400Y-107149900D01*
X166295400Y-108167124D01*
X166497800Y-108290810D01*
X166832033Y-108152378D01*
X167213749Y-107812440D01*
X167436320Y-107352302D01*
X167313490Y-107149900D01*
X166295400Y-107149900D01*
X166041400Y-107149900D01*
X166021400Y-107149900D01*
X166021400Y-106895900D01*
X166041400Y-106895900D01*
X166041400Y-106875900D01*
X166295400Y-106875900D01*
X166295400Y-106895900D01*
X167313490Y-106895900D01*
X167436320Y-106693498D01*
X167213749Y-106233360D01*
X166999846Y-106042868D01*
X167112857Y-105967357D01*
X167402393Y-105534036D01*
X167504064Y-105022900D01*
X167402393Y-104511764D01*
X167112857Y-104078443D01*
X166679536Y-103788907D01*
X166297422Y-103712900D01*
X166039378Y-103712900D01*
X165657264Y-103788907D01*
X165223943Y-104078443D01*
X165168400Y-104161569D01*
X165112857Y-104078443D01*
X164679536Y-103788907D01*
X164297422Y-103712900D01*
X164039378Y-103712900D01*
X163930000Y-103734657D01*
X163930000Y-97481384D01*
X163944398Y-97409000D01*
X163930000Y-97336616D01*
X163930000Y-97336612D01*
X163887354Y-97122217D01*
X163724905Y-96879095D01*
X163663538Y-96838091D01*
X160549222Y-93723776D01*
X160619513Y-93370400D01*
X160508140Y-92810491D01*
X160190977Y-92335823D01*
X159838642Y-92100400D01*
X160190977Y-91864977D01*
X160508140Y-91390309D01*
X160619513Y-90830400D01*
X160508140Y-90270491D01*
X160190977Y-89795823D01*
X159838642Y-89560400D01*
X160190977Y-89324977D01*
X160359628Y-89072574D01*
X162079000Y-90791947D01*
X162079001Y-93399611D01*
X162064602Y-93472000D01*
X162121646Y-93758782D01*
X162236257Y-93930309D01*
X162284096Y-94001905D01*
X162345463Y-94042909D01*
X162598691Y-94296137D01*
X165993000Y-97690447D01*
X165993000Y-97712037D01*
X166127733Y-98037312D01*
X166376688Y-98286267D01*
X166701963Y-98421000D01*
X167054037Y-98421000D01*
X167379312Y-98286267D01*
X167628267Y-98037312D01*
X167763000Y-97712037D01*
X167763000Y-97359963D01*
X167628267Y-97034688D01*
X167379312Y-96785733D01*
X167054037Y-96651000D01*
X167032447Y-96651000D01*
X163638137Y-93256691D01*
X163549000Y-93167554D01*
X163549000Y-90559888D01*
X163563399Y-90487500D01*
X163506354Y-90200718D01*
X163506354Y-90200717D01*
X163343905Y-89957595D01*
X163282538Y-89916591D01*
X161187811Y-87821865D01*
X161146805Y-87760495D01*
X160903683Y-87598046D01*
X160689288Y-87555400D01*
X160689284Y-87555400D01*
X160616900Y-87541002D01*
X160544516Y-87555400D01*
X160391148Y-87555400D01*
X160190977Y-87255823D01*
X159838642Y-87020400D01*
X160190977Y-86784977D01*
X160508140Y-86310309D01*
X160619513Y-85750400D01*
X160578682Y-85545128D01*
X164263401Y-89229848D01*
X164263400Y-92790016D01*
X164249002Y-92862400D01*
X164263400Y-92934784D01*
X164263400Y-92934787D01*
X164306046Y-93149182D01*
X164468495Y-93392305D01*
X164529865Y-93433311D01*
X165993000Y-94896447D01*
X165993000Y-94918037D01*
X166127733Y-95243312D01*
X166376688Y-95492267D01*
X166701963Y-95627000D01*
X167054037Y-95627000D01*
X167379312Y-95492267D01*
X167628267Y-95243312D01*
X167763000Y-94918037D01*
X167763000Y-94565963D01*
X167628267Y-94240688D01*
X167379312Y-93991733D01*
X167054037Y-93857000D01*
X167032447Y-93857000D01*
X165733400Y-92557954D01*
X165733400Y-88997783D01*
X165747798Y-88925399D01*
X165733400Y-88853015D01*
X165733400Y-88853012D01*
X165690754Y-88638617D01*
X165528305Y-88395495D01*
X165466938Y-88354491D01*
X161124311Y-84011865D01*
X161083305Y-83950495D01*
X160840183Y-83788046D01*
X160625788Y-83745400D01*
X160625784Y-83745400D01*
X160553400Y-83731002D01*
X160514416Y-83738756D01*
X160619513Y-83210400D01*
X160547147Y-82846593D01*
X166143001Y-88442448D01*
X166143000Y-91431421D01*
X166127733Y-91446688D01*
X165993000Y-91771963D01*
X165993000Y-92124037D01*
X166127733Y-92449312D01*
X166376688Y-92698267D01*
X166701963Y-92833000D01*
X167054037Y-92833000D01*
X167379312Y-92698267D01*
X167628267Y-92449312D01*
X167763000Y-92124037D01*
X167763000Y-91771963D01*
X167628267Y-91446688D01*
X167613000Y-91431421D01*
X167613000Y-88210384D01*
X167627398Y-88138000D01*
X167613000Y-88065616D01*
X167613000Y-88065612D01*
X167570354Y-87851217D01*
X167407905Y-87608095D01*
X167346538Y-87567091D01*
X161334846Y-81555400D01*
X166919867Y-81555400D01*
X166997074Y-81632607D01*
X167414234Y-81805400D01*
X167865766Y-81805400D01*
X168282926Y-81632607D01*
X168602207Y-81313326D01*
X168775000Y-80896166D01*
X168775000Y-80444634D01*
X168602207Y-80027474D01*
X168282926Y-79708193D01*
X167865766Y-79535400D01*
X167414234Y-79535400D01*
X166997074Y-79708193D01*
X166919867Y-79785400D01*
X160290921Y-79785400D01*
X160190977Y-79635823D01*
X159716309Y-79318660D01*
X159297733Y-79235400D01*
X159015067Y-79235400D01*
X158596491Y-79318660D01*
X158121823Y-79635823D01*
X158021879Y-79785400D01*
X156815339Y-79785400D01*
X154184705Y-77154767D01*
X154135329Y-77080871D01*
X153842590Y-76885268D01*
X153584445Y-76833920D01*
X153584441Y-76833920D01*
X153497280Y-76816583D01*
X153410119Y-76833920D01*
X152266693Y-76833920D01*
X152189486Y-76756713D01*
X151772326Y-76583920D01*
X151320794Y-76583920D01*
X150903634Y-76756713D01*
X150584353Y-77075994D01*
X150411560Y-77493154D01*
X150411560Y-77944686D01*
X150584353Y-78361846D01*
X150903634Y-78681127D01*
X151320794Y-78853920D01*
X151772326Y-78853920D01*
X152189486Y-78681127D01*
X152266693Y-78603920D01*
X153130702Y-78603920D01*
X155732181Y-81205400D01*
X153110847Y-81205400D01*
X152983840Y-81078393D01*
X152983840Y-79870400D01*
X152934557Y-79622635D01*
X152794209Y-79412591D01*
X152584165Y-79272243D01*
X152336400Y-79222960D01*
X150736400Y-79222960D01*
X150488635Y-79272243D01*
X150278591Y-79412591D01*
X150138243Y-79622635D01*
X150088960Y-79870400D01*
X150088960Y-81470400D01*
X150138243Y-81718165D01*
X150278591Y-81928209D01*
X150488635Y-82068557D01*
X150622506Y-82095185D01*
X150501823Y-82175823D01*
X150301652Y-82475400D01*
X134568847Y-82475400D01*
X132499343Y-80405897D01*
X132578092Y-80010000D01*
X132462839Y-79430582D01*
X132219267Y-79066050D01*
X136037000Y-79066050D01*
X136037000Y-79815950D01*
X136323974Y-80508767D01*
X136854233Y-81039026D01*
X137547050Y-81326000D01*
X138296950Y-81326000D01*
X138989767Y-81039026D01*
X139520026Y-80508767D01*
X139807000Y-79815950D01*
X139807000Y-79066050D01*
X139520026Y-78373233D01*
X138989767Y-77842974D01*
X138296950Y-77556000D01*
X137547050Y-77556000D01*
X136854233Y-77842974D01*
X136323974Y-78373233D01*
X136037000Y-79066050D01*
X132219267Y-79066050D01*
X132134625Y-78939375D01*
X131643418Y-78611161D01*
X131210256Y-78525000D01*
X130917744Y-78525000D01*
X130484582Y-78611161D01*
X129993375Y-78939375D01*
X129981184Y-78957619D01*
X129972157Y-78912235D01*
X129831809Y-78702191D01*
X129621765Y-78561843D01*
X129374000Y-78512560D01*
X127674000Y-78512560D01*
X127426235Y-78561843D01*
X127216191Y-78702191D01*
X127075843Y-78912235D01*
X127026560Y-79160000D01*
X127026560Y-80860000D01*
X127075843Y-81107765D01*
X127216191Y-81317809D01*
X127426235Y-81458157D01*
X127674000Y-81507440D01*
X127789000Y-81507440D01*
X127789001Y-100003611D01*
X127774602Y-100076000D01*
X127831646Y-100362782D01*
X127831647Y-100362783D01*
X127994096Y-100605905D01*
X128055463Y-100646909D01*
X130747091Y-103338537D01*
X130788095Y-103399905D01*
X131031217Y-103562354D01*
X131245612Y-103605000D01*
X131318000Y-103619399D01*
X131390388Y-103605000D01*
X147396554Y-103605000D01*
X147611224Y-103819670D01*
X147223943Y-104078443D01*
X147168400Y-104161569D01*
X147112857Y-104078443D01*
X146679536Y-103788907D01*
X146297422Y-103712900D01*
X146039378Y-103712900D01*
X145657264Y-103788907D01*
X145223943Y-104078443D01*
X145168400Y-104161569D01*
X145112857Y-104078443D01*
X144679536Y-103788907D01*
X144297422Y-103712900D01*
X144039378Y-103712900D01*
X143657264Y-103788907D01*
X143223943Y-104078443D01*
X143168400Y-104161569D01*
X143112857Y-104078443D01*
X142679536Y-103788907D01*
X142297422Y-103712900D01*
X142039378Y-103712900D01*
X141657264Y-103788907D01*
X141223943Y-104078443D01*
X141168400Y-104161569D01*
X141112857Y-104078443D01*
X140679536Y-103788907D01*
X140297422Y-103712900D01*
X140039378Y-103712900D01*
X139657264Y-103788907D01*
X139223943Y-104078443D01*
X139168400Y-104161569D01*
X139112857Y-104078443D01*
X138679536Y-103788907D01*
X138297422Y-103712900D01*
X138039378Y-103712900D01*
X137657264Y-103788907D01*
X137223943Y-104078443D01*
X137168400Y-104161569D01*
X137112857Y-104078443D01*
X136679536Y-103788907D01*
X136297422Y-103712900D01*
X136039378Y-103712900D01*
X135657264Y-103788907D01*
X135223943Y-104078443D01*
X135168400Y-104161569D01*
X135112857Y-104078443D01*
X134679536Y-103788907D01*
X134297422Y-103712900D01*
X134039378Y-103712900D01*
X133657264Y-103788907D01*
X133223943Y-104078443D01*
X133168400Y-104161569D01*
X133112857Y-104078443D01*
X132679536Y-103788907D01*
X132297422Y-103712900D01*
X132039378Y-103712900D01*
X131657264Y-103788907D01*
X131223943Y-104078443D01*
X131168400Y-104161569D01*
X131112857Y-104078443D01*
X130679536Y-103788907D01*
X130297422Y-103712900D01*
X130039378Y-103712900D01*
X129657264Y-103788907D01*
X129223943Y-104078443D01*
X129168400Y-104161569D01*
X129112857Y-104078443D01*
X128679536Y-103788907D01*
X128297422Y-103712900D01*
X128039378Y-103712900D01*
X127657264Y-103788907D01*
X127223943Y-104078443D01*
X126934407Y-104511764D01*
X126832736Y-105022900D01*
X125914400Y-105022900D01*
X125914400Y-74636519D01*
X125958465Y-74386613D01*
X126053805Y-74221480D01*
X126199877Y-74098912D01*
X126408865Y-74022845D01*
X126505396Y-74014400D01*
X168359281Y-74014400D01*
X168609187Y-74058465D01*
X168609187Y-74058465D01*
G37*
X168609187Y-74058465D02*
X168774320Y-74153805D01*
X168896888Y-74299877D01*
X168972955Y-74508865D01*
X168981400Y-74605396D01*
X168981401Y-107726275D01*
X168937335Y-107976187D01*
X168841996Y-108141319D01*
X168695924Y-108263888D01*
X168486932Y-108339955D01*
X168390404Y-108348400D01*
X126536519Y-108348400D01*
X126286613Y-108304335D01*
X126121481Y-108208996D01*
X125998912Y-108062924D01*
X125922845Y-107853932D01*
X125914400Y-107757404D01*
X125914400Y-105022900D01*
X126832736Y-105022900D01*
X126934407Y-105534036D01*
X127130114Y-105826932D01*
X127035591Y-105890091D01*
X126895243Y-106100135D01*
X126845960Y-106347900D01*
X126845960Y-107697900D01*
X126895243Y-107945665D01*
X127035591Y-108155709D01*
X127245635Y-108296057D01*
X127493400Y-108345340D01*
X128843400Y-108345340D01*
X129091165Y-108296057D01*
X129301209Y-108155709D01*
X129364368Y-108061186D01*
X129657264Y-108256893D01*
X130039378Y-108332900D01*
X130297422Y-108332900D01*
X130679536Y-108256893D01*
X131112857Y-107967357D01*
X131168400Y-107884231D01*
X131223943Y-107967357D01*
X131657264Y-108256893D01*
X132039378Y-108332900D01*
X132297422Y-108332900D01*
X132679536Y-108256893D01*
X133112857Y-107967357D01*
X133168400Y-107884231D01*
X133223943Y-107967357D01*
X133657264Y-108256893D01*
X134039378Y-108332900D01*
X134297422Y-108332900D01*
X134679536Y-108256893D01*
X135112857Y-107967357D01*
X135168400Y-107884231D01*
X135223943Y-107967357D01*
X135657264Y-108256893D01*
X136039378Y-108332900D01*
X136297422Y-108332900D01*
X136679536Y-108256893D01*
X137112857Y-107967357D01*
X137168400Y-107884231D01*
X137223943Y-107967357D01*
X137657264Y-108256893D01*
X138039378Y-108332900D01*
X138297422Y-108332900D01*
X138679536Y-108256893D01*
X139112857Y-107967357D01*
X139168400Y-107884231D01*
X139223943Y-107967357D01*
X139657264Y-108256893D01*
X140039378Y-108332900D01*
X140297422Y-108332900D01*
X140679536Y-108256893D01*
X141112857Y-107967357D01*
X141168400Y-107884231D01*
X141223943Y-107967357D01*
X141657264Y-108256893D01*
X142039378Y-108332900D01*
X142297422Y-108332900D01*
X142679536Y-108256893D01*
X143112857Y-107967357D01*
X143168400Y-107884231D01*
X143223943Y-107967357D01*
X143657264Y-108256893D01*
X144039378Y-108332900D01*
X144297422Y-108332900D01*
X144679536Y-108256893D01*
X145112857Y-107967357D01*
X145181556Y-107864542D01*
X145504767Y-108152378D01*
X145839000Y-108290810D01*
X146041400Y-108167124D01*
X146041400Y-107149900D01*
X146021400Y-107149900D01*
X146021400Y-106895900D01*
X146041400Y-106895900D01*
X146041400Y-106875900D01*
X146295400Y-106875900D01*
X146295400Y-106895900D01*
X146315400Y-106895900D01*
X146315400Y-107149900D01*
X146295400Y-107149900D01*
X146295400Y-108167124D01*
X146497800Y-108290810D01*
X146832033Y-108152378D01*
X147155244Y-107864542D01*
X147223943Y-107967357D01*
X147657264Y-108256893D01*
X148039378Y-108332900D01*
X148297422Y-108332900D01*
X148679536Y-108256893D01*
X149112857Y-107967357D01*
X149168400Y-107884231D01*
X149223943Y-107967357D01*
X149657264Y-108256893D01*
X150039378Y-108332900D01*
X150297422Y-108332900D01*
X150679536Y-108256893D01*
X151112857Y-107967357D01*
X151168400Y-107884231D01*
X151223943Y-107967357D01*
X151657264Y-108256893D01*
X152039378Y-108332900D01*
X152297422Y-108332900D01*
X152679536Y-108256893D01*
X153112857Y-107967357D01*
X153168400Y-107884231D01*
X153223943Y-107967357D01*
X153657264Y-108256893D01*
X154039378Y-108332900D01*
X154297422Y-108332900D01*
X154679536Y-108256893D01*
X155112857Y-107967357D01*
X155168400Y-107884231D01*
X155223943Y-107967357D01*
X155657264Y-108256893D01*
X156039378Y-108332900D01*
X156297422Y-108332900D01*
X156679536Y-108256893D01*
X157112857Y-107967357D01*
X157168400Y-107884231D01*
X157223943Y-107967357D01*
X157657264Y-108256893D01*
X158039378Y-108332900D01*
X158297422Y-108332900D01*
X158679536Y-108256893D01*
X159112857Y-107967357D01*
X159168400Y-107884231D01*
X159223943Y-107967357D01*
X159657264Y-108256893D01*
X160039378Y-108332900D01*
X160297422Y-108332900D01*
X160679536Y-108256893D01*
X161112857Y-107967357D01*
X161168400Y-107884231D01*
X161223943Y-107967357D01*
X161657264Y-108256893D01*
X162039378Y-108332900D01*
X162297422Y-108332900D01*
X162679536Y-108256893D01*
X163112857Y-107967357D01*
X163168400Y-107884231D01*
X163223943Y-107967357D01*
X163657264Y-108256893D01*
X164039378Y-108332900D01*
X164297422Y-108332900D01*
X164679536Y-108256893D01*
X165112857Y-107967357D01*
X165181556Y-107864542D01*
X165504767Y-108152378D01*
X165839000Y-108290810D01*
X166041400Y-108167124D01*
X166041400Y-107149900D01*
X166295400Y-107149900D01*
X166295400Y-108167124D01*
X166497800Y-108290810D01*
X166832033Y-108152378D01*
X167213749Y-107812440D01*
X167436320Y-107352302D01*
X167313490Y-107149900D01*
X166295400Y-107149900D01*
X166041400Y-107149900D01*
X166021400Y-107149900D01*
X166021400Y-106895900D01*
X166041400Y-106895900D01*
X166041400Y-106875900D01*
X166295400Y-106875900D01*
X166295400Y-106895900D01*
X167313490Y-106895900D01*
X167436320Y-106693498D01*
X167213749Y-106233360D01*
X166999846Y-106042868D01*
X167112857Y-105967357D01*
X167402393Y-105534036D01*
X167504064Y-105022900D01*
X167402393Y-104511764D01*
X167112857Y-104078443D01*
X166679536Y-103788907D01*
X166297422Y-103712900D01*
X166039378Y-103712900D01*
X165657264Y-103788907D01*
X165223943Y-104078443D01*
X165168400Y-104161569D01*
X165112857Y-104078443D01*
X164679536Y-103788907D01*
X164297422Y-103712900D01*
X164039378Y-103712900D01*
X163930000Y-103734657D01*
X163930000Y-97481384D01*
X163944398Y-97409000D01*
X163930000Y-97336616D01*
X163930000Y-97336612D01*
X163887354Y-97122217D01*
X163724905Y-96879095D01*
X163663538Y-96838091D01*
X160549222Y-93723776D01*
X160619513Y-93370400D01*
X160508140Y-92810491D01*
X160190977Y-92335823D01*
X159838642Y-92100400D01*
X160190977Y-91864977D01*
X160508140Y-91390309D01*
X160619513Y-90830400D01*
X160508140Y-90270491D01*
X160190977Y-89795823D01*
X159838642Y-89560400D01*
X160190977Y-89324977D01*
X160359628Y-89072574D01*
X162079000Y-90791947D01*
X162079001Y-93399611D01*
X162064602Y-93472000D01*
X162121646Y-93758782D01*
X162236257Y-93930309D01*
X162284096Y-94001905D01*
X162345463Y-94042909D01*
X162598691Y-94296137D01*
X165993000Y-97690447D01*
X165993000Y-97712037D01*
X166127733Y-98037312D01*
X166376688Y-98286267D01*
X166701963Y-98421000D01*
X167054037Y-98421000D01*
X167379312Y-98286267D01*
X167628267Y-98037312D01*
X167763000Y-97712037D01*
X167763000Y-97359963D01*
X167628267Y-97034688D01*
X167379312Y-96785733D01*
X167054037Y-96651000D01*
X167032447Y-96651000D01*
X163638137Y-93256691D01*
X163549000Y-93167554D01*
X163549000Y-90559888D01*
X163563399Y-90487500D01*
X163506354Y-90200718D01*
X163506354Y-90200717D01*
X163343905Y-89957595D01*
X163282538Y-89916591D01*
X161187811Y-87821865D01*
X161146805Y-87760495D01*
X160903683Y-87598046D01*
X160689288Y-87555400D01*
X160689284Y-87555400D01*
X160616900Y-87541002D01*
X160544516Y-87555400D01*
X160391148Y-87555400D01*
X160190977Y-87255823D01*
X159838642Y-87020400D01*
X160190977Y-86784977D01*
X160508140Y-86310309D01*
X160619513Y-85750400D01*
X160578682Y-85545128D01*
X164263401Y-89229848D01*
X164263400Y-92790016D01*
X164249002Y-92862400D01*
X164263400Y-92934784D01*
X164263400Y-92934787D01*
X164306046Y-93149182D01*
X164468495Y-93392305D01*
X164529865Y-93433311D01*
X165993000Y-94896447D01*
X165993000Y-94918037D01*
X166127733Y-95243312D01*
X166376688Y-95492267D01*
X166701963Y-95627000D01*
X167054037Y-95627000D01*
X167379312Y-95492267D01*
X167628267Y-95243312D01*
X167763000Y-94918037D01*
X167763000Y-94565963D01*
X167628267Y-94240688D01*
X167379312Y-93991733D01*
X167054037Y-93857000D01*
X167032447Y-93857000D01*
X165733400Y-92557954D01*
X165733400Y-88997783D01*
X165747798Y-88925399D01*
X165733400Y-88853015D01*
X165733400Y-88853012D01*
X165690754Y-88638617D01*
X165528305Y-88395495D01*
X165466938Y-88354491D01*
X161124311Y-84011865D01*
X161083305Y-83950495D01*
X160840183Y-83788046D01*
X160625788Y-83745400D01*
X160625784Y-83745400D01*
X160553400Y-83731002D01*
X160514416Y-83738756D01*
X160619513Y-83210400D01*
X160547147Y-82846593D01*
X166143001Y-88442448D01*
X166143000Y-91431421D01*
X166127733Y-91446688D01*
X165993000Y-91771963D01*
X165993000Y-92124037D01*
X166127733Y-92449312D01*
X166376688Y-92698267D01*
X166701963Y-92833000D01*
X167054037Y-92833000D01*
X167379312Y-92698267D01*
X167628267Y-92449312D01*
X167763000Y-92124037D01*
X167763000Y-91771963D01*
X167628267Y-91446688D01*
X167613000Y-91431421D01*
X167613000Y-88210384D01*
X167627398Y-88138000D01*
X167613000Y-88065616D01*
X167613000Y-88065612D01*
X167570354Y-87851217D01*
X167407905Y-87608095D01*
X167346538Y-87567091D01*
X161334846Y-81555400D01*
X166919867Y-81555400D01*
X166997074Y-81632607D01*
X167414234Y-81805400D01*
X167865766Y-81805400D01*
X168282926Y-81632607D01*
X168602207Y-81313326D01*
X168775000Y-80896166D01*
X168775000Y-80444634D01*
X168602207Y-80027474D01*
X168282926Y-79708193D01*
X167865766Y-79535400D01*
X167414234Y-79535400D01*
X166997074Y-79708193D01*
X166919867Y-79785400D01*
X160290921Y-79785400D01*
X160190977Y-79635823D01*
X159716309Y-79318660D01*
X159297733Y-79235400D01*
X159015067Y-79235400D01*
X158596491Y-79318660D01*
X158121823Y-79635823D01*
X158021879Y-79785400D01*
X156815339Y-79785400D01*
X154184705Y-77154767D01*
X154135329Y-77080871D01*
X153842590Y-76885268D01*
X153584445Y-76833920D01*
X153584441Y-76833920D01*
X153497280Y-76816583D01*
X153410119Y-76833920D01*
X152266693Y-76833920D01*
X152189486Y-76756713D01*
X151772326Y-76583920D01*
X151320794Y-76583920D01*
X150903634Y-76756713D01*
X150584353Y-77075994D01*
X150411560Y-77493154D01*
X150411560Y-77944686D01*
X150584353Y-78361846D01*
X150903634Y-78681127D01*
X151320794Y-78853920D01*
X151772326Y-78853920D01*
X152189486Y-78681127D01*
X152266693Y-78603920D01*
X153130702Y-78603920D01*
X155732181Y-81205400D01*
X153110847Y-81205400D01*
X152983840Y-81078393D01*
X152983840Y-79870400D01*
X152934557Y-79622635D01*
X152794209Y-79412591D01*
X152584165Y-79272243D01*
X152336400Y-79222960D01*
X150736400Y-79222960D01*
X150488635Y-79272243D01*
X150278591Y-79412591D01*
X150138243Y-79622635D01*
X150088960Y-79870400D01*
X150088960Y-81470400D01*
X150138243Y-81718165D01*
X150278591Y-81928209D01*
X150488635Y-82068557D01*
X150622506Y-82095185D01*
X150501823Y-82175823D01*
X150301652Y-82475400D01*
X134568847Y-82475400D01*
X132499343Y-80405897D01*
X132578092Y-80010000D01*
X132462839Y-79430582D01*
X132219267Y-79066050D01*
X136037000Y-79066050D01*
X136037000Y-79815950D01*
X136323974Y-80508767D01*
X136854233Y-81039026D01*
X137547050Y-81326000D01*
X138296950Y-81326000D01*
X138989767Y-81039026D01*
X139520026Y-80508767D01*
X139807000Y-79815950D01*
X139807000Y-79066050D01*
X139520026Y-78373233D01*
X138989767Y-77842974D01*
X138296950Y-77556000D01*
X137547050Y-77556000D01*
X136854233Y-77842974D01*
X136323974Y-78373233D01*
X136037000Y-79066050D01*
X132219267Y-79066050D01*
X132134625Y-78939375D01*
X131643418Y-78611161D01*
X131210256Y-78525000D01*
X130917744Y-78525000D01*
X130484582Y-78611161D01*
X129993375Y-78939375D01*
X129981184Y-78957619D01*
X129972157Y-78912235D01*
X129831809Y-78702191D01*
X129621765Y-78561843D01*
X129374000Y-78512560D01*
X127674000Y-78512560D01*
X127426235Y-78561843D01*
X127216191Y-78702191D01*
X127075843Y-78912235D01*
X127026560Y-79160000D01*
X127026560Y-80860000D01*
X127075843Y-81107765D01*
X127216191Y-81317809D01*
X127426235Y-81458157D01*
X127674000Y-81507440D01*
X127789000Y-81507440D01*
X127789001Y-100003611D01*
X127774602Y-100076000D01*
X127831646Y-100362782D01*
X127831647Y-100362783D01*
X127994096Y-100605905D01*
X128055463Y-100646909D01*
X130747091Y-103338537D01*
X130788095Y-103399905D01*
X131031217Y-103562354D01*
X131245612Y-103605000D01*
X131318000Y-103619399D01*
X131390388Y-103605000D01*
X147396554Y-103605000D01*
X147611224Y-103819670D01*
X147223943Y-104078443D01*
X147168400Y-104161569D01*
X147112857Y-104078443D01*
X146679536Y-103788907D01*
X146297422Y-103712900D01*
X146039378Y-103712900D01*
X145657264Y-103788907D01*
X145223943Y-104078443D01*
X145168400Y-104161569D01*
X145112857Y-104078443D01*
X144679536Y-103788907D01*
X144297422Y-103712900D01*
X144039378Y-103712900D01*
X143657264Y-103788907D01*
X143223943Y-104078443D01*
X143168400Y-104161569D01*
X143112857Y-104078443D01*
X142679536Y-103788907D01*
X142297422Y-103712900D01*
X142039378Y-103712900D01*
X141657264Y-103788907D01*
X141223943Y-104078443D01*
X141168400Y-104161569D01*
X141112857Y-104078443D01*
X140679536Y-103788907D01*
X140297422Y-103712900D01*
X140039378Y-103712900D01*
X139657264Y-103788907D01*
X139223943Y-104078443D01*
X139168400Y-104161569D01*
X139112857Y-104078443D01*
X138679536Y-103788907D01*
X138297422Y-103712900D01*
X138039378Y-103712900D01*
X137657264Y-103788907D01*
X137223943Y-104078443D01*
X137168400Y-104161569D01*
X137112857Y-104078443D01*
X136679536Y-103788907D01*
X136297422Y-103712900D01*
X136039378Y-103712900D01*
X135657264Y-103788907D01*
X135223943Y-104078443D01*
X135168400Y-104161569D01*
X135112857Y-104078443D01*
X134679536Y-103788907D01*
X134297422Y-103712900D01*
X134039378Y-103712900D01*
X133657264Y-103788907D01*
X133223943Y-104078443D01*
X133168400Y-104161569D01*
X133112857Y-104078443D01*
X132679536Y-103788907D01*
X132297422Y-103712900D01*
X132039378Y-103712900D01*
X131657264Y-103788907D01*
X131223943Y-104078443D01*
X131168400Y-104161569D01*
X131112857Y-104078443D01*
X130679536Y-103788907D01*
X130297422Y-103712900D01*
X130039378Y-103712900D01*
X129657264Y-103788907D01*
X129223943Y-104078443D01*
X129168400Y-104161569D01*
X129112857Y-104078443D01*
X128679536Y-103788907D01*
X128297422Y-103712900D01*
X128039378Y-103712900D01*
X127657264Y-103788907D01*
X127223943Y-104078443D01*
X126934407Y-104511764D01*
X126832736Y-105022900D01*
X125914400Y-105022900D01*
X125914400Y-74636519D01*
X125958465Y-74386613D01*
X126053805Y-74221480D01*
X126199877Y-74098912D01*
X126408865Y-74022845D01*
X126505396Y-74014400D01*
X168359281Y-74014400D01*
X168609187Y-74058465D01*
G36*
X129993375Y-81080625D02*
X130484582Y-81408839D01*
X130917744Y-81495000D01*
X131210256Y-81495000D01*
X131459897Y-81445343D01*
X133693491Y-83678937D01*
X133734495Y-83740305D01*
X133977617Y-83902754D01*
X134192012Y-83945400D01*
X134192015Y-83945400D01*
X134264399Y-83959798D01*
X134336783Y-83945400D01*
X150301652Y-83945400D01*
X150501823Y-84244977D01*
X150854158Y-84480400D01*
X150501823Y-84715823D01*
X150184660Y-85190491D01*
X150073287Y-85750400D01*
X150184660Y-86310309D01*
X150501823Y-86784977D01*
X150854158Y-87020400D01*
X150501823Y-87255823D01*
X150184660Y-87730491D01*
X150073287Y-88290400D01*
X150184660Y-88850309D01*
X150501823Y-89324977D01*
X150854158Y-89560400D01*
X150501823Y-89795823D01*
X150184660Y-90270491D01*
X150073287Y-90830400D01*
X150184660Y-91390309D01*
X150501823Y-91864977D01*
X150854158Y-92100400D01*
X150501823Y-92335823D01*
X150184660Y-92810491D01*
X150073287Y-93370400D01*
X150184660Y-93930309D01*
X150501823Y-94404977D01*
X150854158Y-94640400D01*
X150501823Y-94875823D01*
X150184660Y-95350491D01*
X150073287Y-95910400D01*
X150184660Y-96470309D01*
X150501823Y-96944977D01*
X150854158Y-97180400D01*
X150501823Y-97415823D01*
X150184660Y-97890491D01*
X150073287Y-98450400D01*
X150184660Y-99010309D01*
X150501823Y-99484977D01*
X150885508Y-99741347D01*
X150681266Y-99838011D01*
X150305359Y-100252977D01*
X150144496Y-100641361D01*
X150266485Y-100863400D01*
X151409400Y-100863400D01*
X151409400Y-100843400D01*
X151663400Y-100843400D01*
X151663400Y-100863400D01*
X152806315Y-100863400D01*
X152928304Y-100641361D01*
X152767441Y-100252977D01*
X152391534Y-99838011D01*
X152187292Y-99741347D01*
X152570977Y-99484977D01*
X152888140Y-99010309D01*
X152999513Y-98450400D01*
X152888140Y-97890491D01*
X152570977Y-97415823D01*
X152218642Y-97180400D01*
X152570977Y-96944977D01*
X152888140Y-96470309D01*
X152999513Y-95910400D01*
X152888140Y-95350491D01*
X152570977Y-94875823D01*
X152218642Y-94640400D01*
X152570977Y-94404977D01*
X152888140Y-93930309D01*
X152999513Y-93370400D01*
X152888140Y-92810491D01*
X152570977Y-92335823D01*
X152218642Y-92100400D01*
X152570977Y-91864977D01*
X152888140Y-91390309D01*
X152999513Y-90830400D01*
X152888140Y-90270491D01*
X152570977Y-89795823D01*
X152218642Y-89560400D01*
X152570977Y-89324977D01*
X152888140Y-88850309D01*
X152999513Y-88290400D01*
X152888140Y-87730491D01*
X152570977Y-87255823D01*
X152218642Y-87020400D01*
X152570977Y-86784977D01*
X152888140Y-86310309D01*
X152999513Y-85750400D01*
X152888140Y-85190491D01*
X152570977Y-84715823D01*
X152218642Y-84480400D01*
X152570977Y-84244977D01*
X152771148Y-83945400D01*
X155295954Y-83945400D01*
X156299490Y-84948937D01*
X156340495Y-85010305D01*
X156583617Y-85172754D01*
X156798012Y-85215400D01*
X156798015Y-85215400D01*
X156870399Y-85229798D01*
X156942783Y-85215400D01*
X157799705Y-85215400D01*
X157693287Y-85750400D01*
X157804660Y-86310309D01*
X158121823Y-86784977D01*
X158474158Y-87020400D01*
X158121823Y-87255823D01*
X157804660Y-87730491D01*
X157693287Y-88290400D01*
X157804660Y-88850309D01*
X158121823Y-89324977D01*
X158474158Y-89560400D01*
X158121823Y-89795823D01*
X157804660Y-90270491D01*
X157693287Y-90830400D01*
X157804660Y-91390309D01*
X158121823Y-91864977D01*
X158474158Y-92100400D01*
X158121823Y-92335823D01*
X157804660Y-92810491D01*
X157693287Y-93370400D01*
X157804660Y-93930309D01*
X158121823Y-94404977D01*
X158474158Y-94640400D01*
X158121823Y-94875823D01*
X157804660Y-95350491D01*
X157693287Y-95910400D01*
X157804660Y-96470309D01*
X158121823Y-96944977D01*
X158474158Y-97180400D01*
X158121823Y-97415823D01*
X157804660Y-97890491D01*
X157693287Y-98450400D01*
X157804660Y-99010309D01*
X158121823Y-99484977D01*
X158474158Y-99720400D01*
X158121823Y-99955823D01*
X157804660Y-100430491D01*
X157693287Y-100990400D01*
X157763578Y-101343776D01*
X156972354Y-102135000D01*
X153831288Y-102135000D01*
X153758900Y-102120601D01*
X153686512Y-102135000D01*
X153472117Y-102177646D01*
X153228995Y-102340095D01*
X153187991Y-102401462D01*
X151836124Y-103753330D01*
X151657264Y-103788907D01*
X151223943Y-104078443D01*
X151168400Y-104161569D01*
X151112857Y-104078443D01*
X150679536Y-103788907D01*
X150297422Y-103712900D01*
X150039378Y-103712900D01*
X149659007Y-103788560D01*
X148271911Y-102401465D01*
X148230905Y-102340095D01*
X147987783Y-102177646D01*
X147773388Y-102135000D01*
X147773384Y-102135000D01*
X147701000Y-102120602D01*
X147628616Y-102135000D01*
X131622447Y-102135000D01*
X130826886Y-101339439D01*
X150144496Y-101339439D01*
X150305359Y-101727823D01*
X150681266Y-102142789D01*
X151187359Y-102382314D01*
X151409400Y-102261029D01*
X151409400Y-101117400D01*
X151663400Y-101117400D01*
X151663400Y-102261029D01*
X151885441Y-102382314D01*
X152391534Y-102142789D01*
X152767441Y-101727823D01*
X152928304Y-101339439D01*
X152806315Y-101117400D01*
X151663400Y-101117400D01*
X151409400Y-101117400D01*
X150266485Y-101117400D01*
X150144496Y-101339439D01*
X130826886Y-101339439D01*
X129259000Y-99771554D01*
X129259000Y-99726750D01*
X136202000Y-99726750D01*
X136202000Y-100652309D01*
X136298673Y-100885698D01*
X136477301Y-101064327D01*
X136710690Y-101161000D01*
X137636250Y-101161000D01*
X137795000Y-101002250D01*
X137795000Y-99568000D01*
X138049000Y-99568000D01*
X138049000Y-101002250D01*
X138207750Y-101161000D01*
X139133310Y-101161000D01*
X139366699Y-101064327D01*
X139545327Y-100885698D01*
X139642000Y-100652309D01*
X139642000Y-99726750D01*
X139483250Y-99568000D01*
X138049000Y-99568000D01*
X137795000Y-99568000D01*
X136360750Y-99568000D01*
X136202000Y-99726750D01*
X129259000Y-99726750D01*
X129259000Y-98229691D01*
X136202000Y-98229691D01*
X136202000Y-99155250D01*
X136360750Y-99314000D01*
X137795000Y-99314000D01*
X137795000Y-97879750D01*
X138049000Y-97879750D01*
X138049000Y-99314000D01*
X139483250Y-99314000D01*
X139642000Y-99155250D01*
X139642000Y-98229691D01*
X139545327Y-97996302D01*
X139366699Y-97817673D01*
X139133310Y-97721000D01*
X138207750Y-97721000D01*
X138049000Y-97879750D01*
X137795000Y-97879750D01*
X137636250Y-97721000D01*
X136710690Y-97721000D01*
X136477301Y-97817673D01*
X136298673Y-97996302D01*
X136202000Y-98229691D01*
X129259000Y-98229691D01*
X129259000Y-81507440D01*
X129374000Y-81507440D01*
X129621765Y-81458157D01*
X129831809Y-81317809D01*
X129972157Y-81107765D01*
X129981184Y-81062381D01*
X129993375Y-81080625D01*
X129993375Y-81080625D01*
G37*
X129993375Y-81080625D02*
X130484582Y-81408839D01*
X130917744Y-81495000D01*
X131210256Y-81495000D01*
X131459897Y-81445343D01*
X133693491Y-83678937D01*
X133734495Y-83740305D01*
X133977617Y-83902754D01*
X134192012Y-83945400D01*
X134192015Y-83945400D01*
X134264399Y-83959798D01*
X134336783Y-83945400D01*
X150301652Y-83945400D01*
X150501823Y-84244977D01*
X150854158Y-84480400D01*
X150501823Y-84715823D01*
X150184660Y-85190491D01*
X150073287Y-85750400D01*
X150184660Y-86310309D01*
X150501823Y-86784977D01*
X150854158Y-87020400D01*
X150501823Y-87255823D01*
X150184660Y-87730491D01*
X150073287Y-88290400D01*
X150184660Y-88850309D01*
X150501823Y-89324977D01*
X150854158Y-89560400D01*
X150501823Y-89795823D01*
X150184660Y-90270491D01*
X150073287Y-90830400D01*
X150184660Y-91390309D01*
X150501823Y-91864977D01*
X150854158Y-92100400D01*
X150501823Y-92335823D01*
X150184660Y-92810491D01*
X150073287Y-93370400D01*
X150184660Y-93930309D01*
X150501823Y-94404977D01*
X150854158Y-94640400D01*
X150501823Y-94875823D01*
X150184660Y-95350491D01*
X150073287Y-95910400D01*
X150184660Y-96470309D01*
X150501823Y-96944977D01*
X150854158Y-97180400D01*
X150501823Y-97415823D01*
X150184660Y-97890491D01*
X150073287Y-98450400D01*
X150184660Y-99010309D01*
X150501823Y-99484977D01*
X150885508Y-99741347D01*
X150681266Y-99838011D01*
X150305359Y-100252977D01*
X150144496Y-100641361D01*
X150266485Y-100863400D01*
X151409400Y-100863400D01*
X151409400Y-100843400D01*
X151663400Y-100843400D01*
X151663400Y-100863400D01*
X152806315Y-100863400D01*
X152928304Y-100641361D01*
X152767441Y-100252977D01*
X152391534Y-99838011D01*
X152187292Y-99741347D01*
X152570977Y-99484977D01*
X152888140Y-99010309D01*
X152999513Y-98450400D01*
X152888140Y-97890491D01*
X152570977Y-97415823D01*
X152218642Y-97180400D01*
X152570977Y-96944977D01*
X152888140Y-96470309D01*
X152999513Y-95910400D01*
X152888140Y-95350491D01*
X152570977Y-94875823D01*
X152218642Y-94640400D01*
X152570977Y-94404977D01*
X152888140Y-93930309D01*
X152999513Y-93370400D01*
X152888140Y-92810491D01*
X152570977Y-92335823D01*
X152218642Y-92100400D01*
X152570977Y-91864977D01*
X152888140Y-91390309D01*
X152999513Y-90830400D01*
X152888140Y-90270491D01*
X152570977Y-89795823D01*
X152218642Y-89560400D01*
X152570977Y-89324977D01*
X152888140Y-88850309D01*
X152999513Y-88290400D01*
X152888140Y-87730491D01*
X152570977Y-87255823D01*
X152218642Y-87020400D01*
X152570977Y-86784977D01*
X152888140Y-86310309D01*
X152999513Y-85750400D01*
X152888140Y-85190491D01*
X152570977Y-84715823D01*
X152218642Y-84480400D01*
X152570977Y-84244977D01*
X152771148Y-83945400D01*
X155295954Y-83945400D01*
X156299490Y-84948937D01*
X156340495Y-85010305D01*
X156583617Y-85172754D01*
X156798012Y-85215400D01*
X156798015Y-85215400D01*
X156870399Y-85229798D01*
X156942783Y-85215400D01*
X157799705Y-85215400D01*
X157693287Y-85750400D01*
X157804660Y-86310309D01*
X158121823Y-86784977D01*
X158474158Y-87020400D01*
X158121823Y-87255823D01*
X157804660Y-87730491D01*
X157693287Y-88290400D01*
X157804660Y-88850309D01*
X158121823Y-89324977D01*
X158474158Y-89560400D01*
X158121823Y-89795823D01*
X157804660Y-90270491D01*
X157693287Y-90830400D01*
X157804660Y-91390309D01*
X158121823Y-91864977D01*
X158474158Y-92100400D01*
X158121823Y-92335823D01*
X157804660Y-92810491D01*
X157693287Y-93370400D01*
X157804660Y-93930309D01*
X158121823Y-94404977D01*
X158474158Y-94640400D01*
X158121823Y-94875823D01*
X157804660Y-95350491D01*
X157693287Y-95910400D01*
X157804660Y-96470309D01*
X158121823Y-96944977D01*
X158474158Y-97180400D01*
X158121823Y-97415823D01*
X157804660Y-97890491D01*
X157693287Y-98450400D01*
X157804660Y-99010309D01*
X158121823Y-99484977D01*
X158474158Y-99720400D01*
X158121823Y-99955823D01*
X157804660Y-100430491D01*
X157693287Y-100990400D01*
X157763578Y-101343776D01*
X156972354Y-102135000D01*
X153831288Y-102135000D01*
X153758900Y-102120601D01*
X153686512Y-102135000D01*
X153472117Y-102177646D01*
X153228995Y-102340095D01*
X153187991Y-102401462D01*
X151836124Y-103753330D01*
X151657264Y-103788907D01*
X151223943Y-104078443D01*
X151168400Y-104161569D01*
X151112857Y-104078443D01*
X150679536Y-103788907D01*
X150297422Y-103712900D01*
X150039378Y-103712900D01*
X149659007Y-103788560D01*
X148271911Y-102401465D01*
X148230905Y-102340095D01*
X147987783Y-102177646D01*
X147773388Y-102135000D01*
X147773384Y-102135000D01*
X147701000Y-102120602D01*
X147628616Y-102135000D01*
X131622447Y-102135000D01*
X130826886Y-101339439D01*
X150144496Y-101339439D01*
X150305359Y-101727823D01*
X150681266Y-102142789D01*
X151187359Y-102382314D01*
X151409400Y-102261029D01*
X151409400Y-101117400D01*
X151663400Y-101117400D01*
X151663400Y-102261029D01*
X151885441Y-102382314D01*
X152391534Y-102142789D01*
X152767441Y-101727823D01*
X152928304Y-101339439D01*
X152806315Y-101117400D01*
X151663400Y-101117400D01*
X151409400Y-101117400D01*
X150266485Y-101117400D01*
X150144496Y-101339439D01*
X130826886Y-101339439D01*
X129259000Y-99771554D01*
X129259000Y-99726750D01*
X136202000Y-99726750D01*
X136202000Y-100652309D01*
X136298673Y-100885698D01*
X136477301Y-101064327D01*
X136710690Y-101161000D01*
X137636250Y-101161000D01*
X137795000Y-101002250D01*
X137795000Y-99568000D01*
X138049000Y-99568000D01*
X138049000Y-101002250D01*
X138207750Y-101161000D01*
X139133310Y-101161000D01*
X139366699Y-101064327D01*
X139545327Y-100885698D01*
X139642000Y-100652309D01*
X139642000Y-99726750D01*
X139483250Y-99568000D01*
X138049000Y-99568000D01*
X137795000Y-99568000D01*
X136360750Y-99568000D01*
X136202000Y-99726750D01*
X129259000Y-99726750D01*
X129259000Y-98229691D01*
X136202000Y-98229691D01*
X136202000Y-99155250D01*
X136360750Y-99314000D01*
X137795000Y-99314000D01*
X137795000Y-97879750D01*
X138049000Y-97879750D01*
X138049000Y-99314000D01*
X139483250Y-99314000D01*
X139642000Y-99155250D01*
X139642000Y-98229691D01*
X139545327Y-97996302D01*
X139366699Y-97817673D01*
X139133310Y-97721000D01*
X138207750Y-97721000D01*
X138049000Y-97879750D01*
X137795000Y-97879750D01*
X137636250Y-97721000D01*
X136710690Y-97721000D01*
X136477301Y-97817673D01*
X136298673Y-97996302D01*
X136202000Y-98229691D01*
X129259000Y-98229691D01*
X129259000Y-81507440D01*
X129374000Y-81507440D01*
X129621765Y-81458157D01*
X129831809Y-81317809D01*
X129972157Y-81107765D01*
X129981184Y-81062381D01*
X129993375Y-81080625D01*
G04 #@! TD*
M02*
