G04 #@! TF.GenerationSoftware,KiCad,Pcbnew,5.0.2-bee76a0~70~ubuntu16.04.1*
G04 #@! TF.CreationDate,2019-02-17T17:32:44+01:00*
G04 #@! TF.ProjectId,OpenA1200RTC,4f70656e-4131-4323-9030-5254432e6b69,1.0*
G04 #@! TF.SameCoordinates,Original*
G04 #@! TF.FileFunction,Soldermask,Top*
G04 #@! TF.FilePolarity,Negative*
%FSLAX46Y46*%
G04 Gerber Fmt 4.6, Leading zero omitted, Abs format (unit mm)*
G04 Created by KiCad (PCBNEW 5.0.2-bee76a0~70~ubuntu16.04.1) date dom 17 feb 2019 17:32:44 CET*
%MOMM*%
%LPD*%
G01*
G04 APERTURE LIST*
%ADD10C,0.100000*%
G04 APERTURE END LIST*
D10*
G36*
X166225391Y-106299001D02*
X166310721Y-106307405D01*
X166447572Y-106348919D01*
X166447574Y-106348920D01*
X166447577Y-106348921D01*
X166573696Y-106416332D01*
X166684243Y-106507057D01*
X166774968Y-106617604D01*
X166842379Y-106743723D01*
X166842380Y-106743726D01*
X166842381Y-106743728D01*
X166883895Y-106880579D01*
X166897912Y-107022900D01*
X166883895Y-107165221D01*
X166842381Y-107302072D01*
X166842379Y-107302077D01*
X166774968Y-107428196D01*
X166684243Y-107538743D01*
X166573696Y-107629468D01*
X166447577Y-107696879D01*
X166447574Y-107696880D01*
X166447572Y-107696881D01*
X166310721Y-107738395D01*
X166225391Y-107746799D01*
X166204060Y-107748900D01*
X166132740Y-107748900D01*
X166111409Y-107746799D01*
X166026079Y-107738395D01*
X165889228Y-107696881D01*
X165889226Y-107696880D01*
X165889223Y-107696879D01*
X165763104Y-107629468D01*
X165652557Y-107538743D01*
X165561832Y-107428196D01*
X165494421Y-107302077D01*
X165494419Y-107302072D01*
X165452905Y-107165221D01*
X165438888Y-107022900D01*
X165452905Y-106880579D01*
X165494419Y-106743728D01*
X165494420Y-106743726D01*
X165494421Y-106743723D01*
X165561832Y-106617604D01*
X165652557Y-106507057D01*
X165763104Y-106416332D01*
X165889223Y-106348921D01*
X165889226Y-106348920D01*
X165889228Y-106348919D01*
X166026079Y-106307405D01*
X166111409Y-106299001D01*
X166132740Y-106296900D01*
X166204060Y-106296900D01*
X166225391Y-106299001D01*
X166225391Y-106299001D01*
G37*
G36*
X146225391Y-106299001D02*
X146310721Y-106307405D01*
X146447572Y-106348919D01*
X146447574Y-106348920D01*
X146447577Y-106348921D01*
X146573696Y-106416332D01*
X146684243Y-106507057D01*
X146774968Y-106617604D01*
X146842379Y-106743723D01*
X146842380Y-106743726D01*
X146842381Y-106743728D01*
X146883895Y-106880579D01*
X146897912Y-107022900D01*
X146883895Y-107165221D01*
X146842381Y-107302072D01*
X146842379Y-107302077D01*
X146774968Y-107428196D01*
X146684243Y-107538743D01*
X146573696Y-107629468D01*
X146447577Y-107696879D01*
X146447574Y-107696880D01*
X146447572Y-107696881D01*
X146310721Y-107738395D01*
X146225391Y-107746799D01*
X146204060Y-107748900D01*
X146132740Y-107748900D01*
X146111409Y-107746799D01*
X146026079Y-107738395D01*
X145889228Y-107696881D01*
X145889226Y-107696880D01*
X145889223Y-107696879D01*
X145763104Y-107629468D01*
X145652557Y-107538743D01*
X145561832Y-107428196D01*
X145494421Y-107302077D01*
X145494419Y-107302072D01*
X145452905Y-107165221D01*
X145438888Y-107022900D01*
X145452905Y-106880579D01*
X145494419Y-106743728D01*
X145494420Y-106743726D01*
X145494421Y-106743723D01*
X145561832Y-106617604D01*
X145652557Y-106507057D01*
X145763104Y-106416332D01*
X145889223Y-106348921D01*
X145889226Y-106348920D01*
X145889228Y-106348919D01*
X146026079Y-106307405D01*
X146111409Y-106299001D01*
X146132740Y-106296900D01*
X146204060Y-106296900D01*
X146225391Y-106299001D01*
X146225391Y-106299001D01*
G37*
G36*
X128894400Y-107748900D02*
X127442400Y-107748900D01*
X127442400Y-106296900D01*
X128894400Y-106296900D01*
X128894400Y-107748900D01*
X128894400Y-107748900D01*
G37*
G36*
X130225391Y-106299001D02*
X130310721Y-106307405D01*
X130447572Y-106348919D01*
X130447574Y-106348920D01*
X130447577Y-106348921D01*
X130573696Y-106416332D01*
X130684243Y-106507057D01*
X130774968Y-106617604D01*
X130842379Y-106743723D01*
X130842380Y-106743726D01*
X130842381Y-106743728D01*
X130883895Y-106880579D01*
X130897912Y-107022900D01*
X130883895Y-107165221D01*
X130842381Y-107302072D01*
X130842379Y-107302077D01*
X130774968Y-107428196D01*
X130684243Y-107538743D01*
X130573696Y-107629468D01*
X130447577Y-107696879D01*
X130447574Y-107696880D01*
X130447572Y-107696881D01*
X130310721Y-107738395D01*
X130225391Y-107746799D01*
X130204060Y-107748900D01*
X130132740Y-107748900D01*
X130111409Y-107746799D01*
X130026079Y-107738395D01*
X129889228Y-107696881D01*
X129889226Y-107696880D01*
X129889223Y-107696879D01*
X129763104Y-107629468D01*
X129652557Y-107538743D01*
X129561832Y-107428196D01*
X129494421Y-107302077D01*
X129494419Y-107302072D01*
X129452905Y-107165221D01*
X129438888Y-107022900D01*
X129452905Y-106880579D01*
X129494419Y-106743728D01*
X129494420Y-106743726D01*
X129494421Y-106743723D01*
X129561832Y-106617604D01*
X129652557Y-106507057D01*
X129763104Y-106416332D01*
X129889223Y-106348921D01*
X129889226Y-106348920D01*
X129889228Y-106348919D01*
X130026079Y-106307405D01*
X130111409Y-106299001D01*
X130132740Y-106296900D01*
X130204060Y-106296900D01*
X130225391Y-106299001D01*
X130225391Y-106299001D01*
G37*
G36*
X132225391Y-106299001D02*
X132310721Y-106307405D01*
X132447572Y-106348919D01*
X132447574Y-106348920D01*
X132447577Y-106348921D01*
X132573696Y-106416332D01*
X132684243Y-106507057D01*
X132774968Y-106617604D01*
X132842379Y-106743723D01*
X132842380Y-106743726D01*
X132842381Y-106743728D01*
X132883895Y-106880579D01*
X132897912Y-107022900D01*
X132883895Y-107165221D01*
X132842381Y-107302072D01*
X132842379Y-107302077D01*
X132774968Y-107428196D01*
X132684243Y-107538743D01*
X132573696Y-107629468D01*
X132447577Y-107696879D01*
X132447574Y-107696880D01*
X132447572Y-107696881D01*
X132310721Y-107738395D01*
X132225391Y-107746799D01*
X132204060Y-107748900D01*
X132132740Y-107748900D01*
X132111409Y-107746799D01*
X132026079Y-107738395D01*
X131889228Y-107696881D01*
X131889226Y-107696880D01*
X131889223Y-107696879D01*
X131763104Y-107629468D01*
X131652557Y-107538743D01*
X131561832Y-107428196D01*
X131494421Y-107302077D01*
X131494419Y-107302072D01*
X131452905Y-107165221D01*
X131438888Y-107022900D01*
X131452905Y-106880579D01*
X131494419Y-106743728D01*
X131494420Y-106743726D01*
X131494421Y-106743723D01*
X131561832Y-106617604D01*
X131652557Y-106507057D01*
X131763104Y-106416332D01*
X131889223Y-106348921D01*
X131889226Y-106348920D01*
X131889228Y-106348919D01*
X132026079Y-106307405D01*
X132111409Y-106299001D01*
X132132740Y-106296900D01*
X132204060Y-106296900D01*
X132225391Y-106299001D01*
X132225391Y-106299001D01*
G37*
G36*
X134225391Y-106299001D02*
X134310721Y-106307405D01*
X134447572Y-106348919D01*
X134447574Y-106348920D01*
X134447577Y-106348921D01*
X134573696Y-106416332D01*
X134684243Y-106507057D01*
X134774968Y-106617604D01*
X134842379Y-106743723D01*
X134842380Y-106743726D01*
X134842381Y-106743728D01*
X134883895Y-106880579D01*
X134897912Y-107022900D01*
X134883895Y-107165221D01*
X134842381Y-107302072D01*
X134842379Y-107302077D01*
X134774968Y-107428196D01*
X134684243Y-107538743D01*
X134573696Y-107629468D01*
X134447577Y-107696879D01*
X134447574Y-107696880D01*
X134447572Y-107696881D01*
X134310721Y-107738395D01*
X134225391Y-107746799D01*
X134204060Y-107748900D01*
X134132740Y-107748900D01*
X134111409Y-107746799D01*
X134026079Y-107738395D01*
X133889228Y-107696881D01*
X133889226Y-107696880D01*
X133889223Y-107696879D01*
X133763104Y-107629468D01*
X133652557Y-107538743D01*
X133561832Y-107428196D01*
X133494421Y-107302077D01*
X133494419Y-107302072D01*
X133452905Y-107165221D01*
X133438888Y-107022900D01*
X133452905Y-106880579D01*
X133494419Y-106743728D01*
X133494420Y-106743726D01*
X133494421Y-106743723D01*
X133561832Y-106617604D01*
X133652557Y-106507057D01*
X133763104Y-106416332D01*
X133889223Y-106348921D01*
X133889226Y-106348920D01*
X133889228Y-106348919D01*
X134026079Y-106307405D01*
X134111409Y-106299001D01*
X134132740Y-106296900D01*
X134204060Y-106296900D01*
X134225391Y-106299001D01*
X134225391Y-106299001D01*
G37*
G36*
X136225391Y-106299001D02*
X136310721Y-106307405D01*
X136447572Y-106348919D01*
X136447574Y-106348920D01*
X136447577Y-106348921D01*
X136573696Y-106416332D01*
X136684243Y-106507057D01*
X136774968Y-106617604D01*
X136842379Y-106743723D01*
X136842380Y-106743726D01*
X136842381Y-106743728D01*
X136883895Y-106880579D01*
X136897912Y-107022900D01*
X136883895Y-107165221D01*
X136842381Y-107302072D01*
X136842379Y-107302077D01*
X136774968Y-107428196D01*
X136684243Y-107538743D01*
X136573696Y-107629468D01*
X136447577Y-107696879D01*
X136447574Y-107696880D01*
X136447572Y-107696881D01*
X136310721Y-107738395D01*
X136225391Y-107746799D01*
X136204060Y-107748900D01*
X136132740Y-107748900D01*
X136111409Y-107746799D01*
X136026079Y-107738395D01*
X135889228Y-107696881D01*
X135889226Y-107696880D01*
X135889223Y-107696879D01*
X135763104Y-107629468D01*
X135652557Y-107538743D01*
X135561832Y-107428196D01*
X135494421Y-107302077D01*
X135494419Y-107302072D01*
X135452905Y-107165221D01*
X135438888Y-107022900D01*
X135452905Y-106880579D01*
X135494419Y-106743728D01*
X135494420Y-106743726D01*
X135494421Y-106743723D01*
X135561832Y-106617604D01*
X135652557Y-106507057D01*
X135763104Y-106416332D01*
X135889223Y-106348921D01*
X135889226Y-106348920D01*
X135889228Y-106348919D01*
X136026079Y-106307405D01*
X136111409Y-106299001D01*
X136132740Y-106296900D01*
X136204060Y-106296900D01*
X136225391Y-106299001D01*
X136225391Y-106299001D01*
G37*
G36*
X138225391Y-106299001D02*
X138310721Y-106307405D01*
X138447572Y-106348919D01*
X138447574Y-106348920D01*
X138447577Y-106348921D01*
X138573696Y-106416332D01*
X138684243Y-106507057D01*
X138774968Y-106617604D01*
X138842379Y-106743723D01*
X138842380Y-106743726D01*
X138842381Y-106743728D01*
X138883895Y-106880579D01*
X138897912Y-107022900D01*
X138883895Y-107165221D01*
X138842381Y-107302072D01*
X138842379Y-107302077D01*
X138774968Y-107428196D01*
X138684243Y-107538743D01*
X138573696Y-107629468D01*
X138447577Y-107696879D01*
X138447574Y-107696880D01*
X138447572Y-107696881D01*
X138310721Y-107738395D01*
X138225391Y-107746799D01*
X138204060Y-107748900D01*
X138132740Y-107748900D01*
X138111409Y-107746799D01*
X138026079Y-107738395D01*
X137889228Y-107696881D01*
X137889226Y-107696880D01*
X137889223Y-107696879D01*
X137763104Y-107629468D01*
X137652557Y-107538743D01*
X137561832Y-107428196D01*
X137494421Y-107302077D01*
X137494419Y-107302072D01*
X137452905Y-107165221D01*
X137438888Y-107022900D01*
X137452905Y-106880579D01*
X137494419Y-106743728D01*
X137494420Y-106743726D01*
X137494421Y-106743723D01*
X137561832Y-106617604D01*
X137652557Y-106507057D01*
X137763104Y-106416332D01*
X137889223Y-106348921D01*
X137889226Y-106348920D01*
X137889228Y-106348919D01*
X138026079Y-106307405D01*
X138111409Y-106299001D01*
X138132740Y-106296900D01*
X138204060Y-106296900D01*
X138225391Y-106299001D01*
X138225391Y-106299001D01*
G37*
G36*
X140225391Y-106299001D02*
X140310721Y-106307405D01*
X140447572Y-106348919D01*
X140447574Y-106348920D01*
X140447577Y-106348921D01*
X140573696Y-106416332D01*
X140684243Y-106507057D01*
X140774968Y-106617604D01*
X140842379Y-106743723D01*
X140842380Y-106743726D01*
X140842381Y-106743728D01*
X140883895Y-106880579D01*
X140897912Y-107022900D01*
X140883895Y-107165221D01*
X140842381Y-107302072D01*
X140842379Y-107302077D01*
X140774968Y-107428196D01*
X140684243Y-107538743D01*
X140573696Y-107629468D01*
X140447577Y-107696879D01*
X140447574Y-107696880D01*
X140447572Y-107696881D01*
X140310721Y-107738395D01*
X140225391Y-107746799D01*
X140204060Y-107748900D01*
X140132740Y-107748900D01*
X140111409Y-107746799D01*
X140026079Y-107738395D01*
X139889228Y-107696881D01*
X139889226Y-107696880D01*
X139889223Y-107696879D01*
X139763104Y-107629468D01*
X139652557Y-107538743D01*
X139561832Y-107428196D01*
X139494421Y-107302077D01*
X139494419Y-107302072D01*
X139452905Y-107165221D01*
X139438888Y-107022900D01*
X139452905Y-106880579D01*
X139494419Y-106743728D01*
X139494420Y-106743726D01*
X139494421Y-106743723D01*
X139561832Y-106617604D01*
X139652557Y-106507057D01*
X139763104Y-106416332D01*
X139889223Y-106348921D01*
X139889226Y-106348920D01*
X139889228Y-106348919D01*
X140026079Y-106307405D01*
X140111409Y-106299001D01*
X140132740Y-106296900D01*
X140204060Y-106296900D01*
X140225391Y-106299001D01*
X140225391Y-106299001D01*
G37*
G36*
X142225391Y-106299001D02*
X142310721Y-106307405D01*
X142447572Y-106348919D01*
X142447574Y-106348920D01*
X142447577Y-106348921D01*
X142573696Y-106416332D01*
X142684243Y-106507057D01*
X142774968Y-106617604D01*
X142842379Y-106743723D01*
X142842380Y-106743726D01*
X142842381Y-106743728D01*
X142883895Y-106880579D01*
X142897912Y-107022900D01*
X142883895Y-107165221D01*
X142842381Y-107302072D01*
X142842379Y-107302077D01*
X142774968Y-107428196D01*
X142684243Y-107538743D01*
X142573696Y-107629468D01*
X142447577Y-107696879D01*
X142447574Y-107696880D01*
X142447572Y-107696881D01*
X142310721Y-107738395D01*
X142225391Y-107746799D01*
X142204060Y-107748900D01*
X142132740Y-107748900D01*
X142111409Y-107746799D01*
X142026079Y-107738395D01*
X141889228Y-107696881D01*
X141889226Y-107696880D01*
X141889223Y-107696879D01*
X141763104Y-107629468D01*
X141652557Y-107538743D01*
X141561832Y-107428196D01*
X141494421Y-107302077D01*
X141494419Y-107302072D01*
X141452905Y-107165221D01*
X141438888Y-107022900D01*
X141452905Y-106880579D01*
X141494419Y-106743728D01*
X141494420Y-106743726D01*
X141494421Y-106743723D01*
X141561832Y-106617604D01*
X141652557Y-106507057D01*
X141763104Y-106416332D01*
X141889223Y-106348921D01*
X141889226Y-106348920D01*
X141889228Y-106348919D01*
X142026079Y-106307405D01*
X142111409Y-106299001D01*
X142132740Y-106296900D01*
X142204060Y-106296900D01*
X142225391Y-106299001D01*
X142225391Y-106299001D01*
G37*
G36*
X144225391Y-106299001D02*
X144310721Y-106307405D01*
X144447572Y-106348919D01*
X144447574Y-106348920D01*
X144447577Y-106348921D01*
X144573696Y-106416332D01*
X144684243Y-106507057D01*
X144774968Y-106617604D01*
X144842379Y-106743723D01*
X144842380Y-106743726D01*
X144842381Y-106743728D01*
X144883895Y-106880579D01*
X144897912Y-107022900D01*
X144883895Y-107165221D01*
X144842381Y-107302072D01*
X144842379Y-107302077D01*
X144774968Y-107428196D01*
X144684243Y-107538743D01*
X144573696Y-107629468D01*
X144447577Y-107696879D01*
X144447574Y-107696880D01*
X144447572Y-107696881D01*
X144310721Y-107738395D01*
X144225391Y-107746799D01*
X144204060Y-107748900D01*
X144132740Y-107748900D01*
X144111409Y-107746799D01*
X144026079Y-107738395D01*
X143889228Y-107696881D01*
X143889226Y-107696880D01*
X143889223Y-107696879D01*
X143763104Y-107629468D01*
X143652557Y-107538743D01*
X143561832Y-107428196D01*
X143494421Y-107302077D01*
X143494419Y-107302072D01*
X143452905Y-107165221D01*
X143438888Y-107022900D01*
X143452905Y-106880579D01*
X143494419Y-106743728D01*
X143494420Y-106743726D01*
X143494421Y-106743723D01*
X143561832Y-106617604D01*
X143652557Y-106507057D01*
X143763104Y-106416332D01*
X143889223Y-106348921D01*
X143889226Y-106348920D01*
X143889228Y-106348919D01*
X144026079Y-106307405D01*
X144111409Y-106299001D01*
X144132740Y-106296900D01*
X144204060Y-106296900D01*
X144225391Y-106299001D01*
X144225391Y-106299001D01*
G37*
G36*
X150225391Y-106299001D02*
X150310721Y-106307405D01*
X150447572Y-106348919D01*
X150447574Y-106348920D01*
X150447577Y-106348921D01*
X150573696Y-106416332D01*
X150684243Y-106507057D01*
X150774968Y-106617604D01*
X150842379Y-106743723D01*
X150842380Y-106743726D01*
X150842381Y-106743728D01*
X150883895Y-106880579D01*
X150897912Y-107022900D01*
X150883895Y-107165221D01*
X150842381Y-107302072D01*
X150842379Y-107302077D01*
X150774968Y-107428196D01*
X150684243Y-107538743D01*
X150573696Y-107629468D01*
X150447577Y-107696879D01*
X150447574Y-107696880D01*
X150447572Y-107696881D01*
X150310721Y-107738395D01*
X150225391Y-107746799D01*
X150204060Y-107748900D01*
X150132740Y-107748900D01*
X150111409Y-107746799D01*
X150026079Y-107738395D01*
X149889228Y-107696881D01*
X149889226Y-107696880D01*
X149889223Y-107696879D01*
X149763104Y-107629468D01*
X149652557Y-107538743D01*
X149561832Y-107428196D01*
X149494421Y-107302077D01*
X149494419Y-107302072D01*
X149452905Y-107165221D01*
X149438888Y-107022900D01*
X149452905Y-106880579D01*
X149494419Y-106743728D01*
X149494420Y-106743726D01*
X149494421Y-106743723D01*
X149561832Y-106617604D01*
X149652557Y-106507057D01*
X149763104Y-106416332D01*
X149889223Y-106348921D01*
X149889226Y-106348920D01*
X149889228Y-106348919D01*
X150026079Y-106307405D01*
X150111409Y-106299001D01*
X150132740Y-106296900D01*
X150204060Y-106296900D01*
X150225391Y-106299001D01*
X150225391Y-106299001D01*
G37*
G36*
X152225391Y-106299001D02*
X152310721Y-106307405D01*
X152447572Y-106348919D01*
X152447574Y-106348920D01*
X152447577Y-106348921D01*
X152573696Y-106416332D01*
X152684243Y-106507057D01*
X152774968Y-106617604D01*
X152842379Y-106743723D01*
X152842380Y-106743726D01*
X152842381Y-106743728D01*
X152883895Y-106880579D01*
X152897912Y-107022900D01*
X152883895Y-107165221D01*
X152842381Y-107302072D01*
X152842379Y-107302077D01*
X152774968Y-107428196D01*
X152684243Y-107538743D01*
X152573696Y-107629468D01*
X152447577Y-107696879D01*
X152447574Y-107696880D01*
X152447572Y-107696881D01*
X152310721Y-107738395D01*
X152225391Y-107746799D01*
X152204060Y-107748900D01*
X152132740Y-107748900D01*
X152111409Y-107746799D01*
X152026079Y-107738395D01*
X151889228Y-107696881D01*
X151889226Y-107696880D01*
X151889223Y-107696879D01*
X151763104Y-107629468D01*
X151652557Y-107538743D01*
X151561832Y-107428196D01*
X151494421Y-107302077D01*
X151494419Y-107302072D01*
X151452905Y-107165221D01*
X151438888Y-107022900D01*
X151452905Y-106880579D01*
X151494419Y-106743728D01*
X151494420Y-106743726D01*
X151494421Y-106743723D01*
X151561832Y-106617604D01*
X151652557Y-106507057D01*
X151763104Y-106416332D01*
X151889223Y-106348921D01*
X151889226Y-106348920D01*
X151889228Y-106348919D01*
X152026079Y-106307405D01*
X152111409Y-106299001D01*
X152132740Y-106296900D01*
X152204060Y-106296900D01*
X152225391Y-106299001D01*
X152225391Y-106299001D01*
G37*
G36*
X154225391Y-106299001D02*
X154310721Y-106307405D01*
X154447572Y-106348919D01*
X154447574Y-106348920D01*
X154447577Y-106348921D01*
X154573696Y-106416332D01*
X154684243Y-106507057D01*
X154774968Y-106617604D01*
X154842379Y-106743723D01*
X154842380Y-106743726D01*
X154842381Y-106743728D01*
X154883895Y-106880579D01*
X154897912Y-107022900D01*
X154883895Y-107165221D01*
X154842381Y-107302072D01*
X154842379Y-107302077D01*
X154774968Y-107428196D01*
X154684243Y-107538743D01*
X154573696Y-107629468D01*
X154447577Y-107696879D01*
X154447574Y-107696880D01*
X154447572Y-107696881D01*
X154310721Y-107738395D01*
X154225391Y-107746799D01*
X154204060Y-107748900D01*
X154132740Y-107748900D01*
X154111409Y-107746799D01*
X154026079Y-107738395D01*
X153889228Y-107696881D01*
X153889226Y-107696880D01*
X153889223Y-107696879D01*
X153763104Y-107629468D01*
X153652557Y-107538743D01*
X153561832Y-107428196D01*
X153494421Y-107302077D01*
X153494419Y-107302072D01*
X153452905Y-107165221D01*
X153438888Y-107022900D01*
X153452905Y-106880579D01*
X153494419Y-106743728D01*
X153494420Y-106743726D01*
X153494421Y-106743723D01*
X153561832Y-106617604D01*
X153652557Y-106507057D01*
X153763104Y-106416332D01*
X153889223Y-106348921D01*
X153889226Y-106348920D01*
X153889228Y-106348919D01*
X154026079Y-106307405D01*
X154111409Y-106299001D01*
X154132740Y-106296900D01*
X154204060Y-106296900D01*
X154225391Y-106299001D01*
X154225391Y-106299001D01*
G37*
G36*
X156225391Y-106299001D02*
X156310721Y-106307405D01*
X156447572Y-106348919D01*
X156447574Y-106348920D01*
X156447577Y-106348921D01*
X156573696Y-106416332D01*
X156684243Y-106507057D01*
X156774968Y-106617604D01*
X156842379Y-106743723D01*
X156842380Y-106743726D01*
X156842381Y-106743728D01*
X156883895Y-106880579D01*
X156897912Y-107022900D01*
X156883895Y-107165221D01*
X156842381Y-107302072D01*
X156842379Y-107302077D01*
X156774968Y-107428196D01*
X156684243Y-107538743D01*
X156573696Y-107629468D01*
X156447577Y-107696879D01*
X156447574Y-107696880D01*
X156447572Y-107696881D01*
X156310721Y-107738395D01*
X156225391Y-107746799D01*
X156204060Y-107748900D01*
X156132740Y-107748900D01*
X156111409Y-107746799D01*
X156026079Y-107738395D01*
X155889228Y-107696881D01*
X155889226Y-107696880D01*
X155889223Y-107696879D01*
X155763104Y-107629468D01*
X155652557Y-107538743D01*
X155561832Y-107428196D01*
X155494421Y-107302077D01*
X155494419Y-107302072D01*
X155452905Y-107165221D01*
X155438888Y-107022900D01*
X155452905Y-106880579D01*
X155494419Y-106743728D01*
X155494420Y-106743726D01*
X155494421Y-106743723D01*
X155561832Y-106617604D01*
X155652557Y-106507057D01*
X155763104Y-106416332D01*
X155889223Y-106348921D01*
X155889226Y-106348920D01*
X155889228Y-106348919D01*
X156026079Y-106307405D01*
X156111409Y-106299001D01*
X156132740Y-106296900D01*
X156204060Y-106296900D01*
X156225391Y-106299001D01*
X156225391Y-106299001D01*
G37*
G36*
X158225391Y-106299001D02*
X158310721Y-106307405D01*
X158447572Y-106348919D01*
X158447574Y-106348920D01*
X158447577Y-106348921D01*
X158573696Y-106416332D01*
X158684243Y-106507057D01*
X158774968Y-106617604D01*
X158842379Y-106743723D01*
X158842380Y-106743726D01*
X158842381Y-106743728D01*
X158883895Y-106880579D01*
X158897912Y-107022900D01*
X158883895Y-107165221D01*
X158842381Y-107302072D01*
X158842379Y-107302077D01*
X158774968Y-107428196D01*
X158684243Y-107538743D01*
X158573696Y-107629468D01*
X158447577Y-107696879D01*
X158447574Y-107696880D01*
X158447572Y-107696881D01*
X158310721Y-107738395D01*
X158225391Y-107746799D01*
X158204060Y-107748900D01*
X158132740Y-107748900D01*
X158111409Y-107746799D01*
X158026079Y-107738395D01*
X157889228Y-107696881D01*
X157889226Y-107696880D01*
X157889223Y-107696879D01*
X157763104Y-107629468D01*
X157652557Y-107538743D01*
X157561832Y-107428196D01*
X157494421Y-107302077D01*
X157494419Y-107302072D01*
X157452905Y-107165221D01*
X157438888Y-107022900D01*
X157452905Y-106880579D01*
X157494419Y-106743728D01*
X157494420Y-106743726D01*
X157494421Y-106743723D01*
X157561832Y-106617604D01*
X157652557Y-106507057D01*
X157763104Y-106416332D01*
X157889223Y-106348921D01*
X157889226Y-106348920D01*
X157889228Y-106348919D01*
X158026079Y-106307405D01*
X158111409Y-106299001D01*
X158132740Y-106296900D01*
X158204060Y-106296900D01*
X158225391Y-106299001D01*
X158225391Y-106299001D01*
G37*
G36*
X160225391Y-106299001D02*
X160310721Y-106307405D01*
X160447572Y-106348919D01*
X160447574Y-106348920D01*
X160447577Y-106348921D01*
X160573696Y-106416332D01*
X160684243Y-106507057D01*
X160774968Y-106617604D01*
X160842379Y-106743723D01*
X160842380Y-106743726D01*
X160842381Y-106743728D01*
X160883895Y-106880579D01*
X160897912Y-107022900D01*
X160883895Y-107165221D01*
X160842381Y-107302072D01*
X160842379Y-107302077D01*
X160774968Y-107428196D01*
X160684243Y-107538743D01*
X160573696Y-107629468D01*
X160447577Y-107696879D01*
X160447574Y-107696880D01*
X160447572Y-107696881D01*
X160310721Y-107738395D01*
X160225391Y-107746799D01*
X160204060Y-107748900D01*
X160132740Y-107748900D01*
X160111409Y-107746799D01*
X160026079Y-107738395D01*
X159889228Y-107696881D01*
X159889226Y-107696880D01*
X159889223Y-107696879D01*
X159763104Y-107629468D01*
X159652557Y-107538743D01*
X159561832Y-107428196D01*
X159494421Y-107302077D01*
X159494419Y-107302072D01*
X159452905Y-107165221D01*
X159438888Y-107022900D01*
X159452905Y-106880579D01*
X159494419Y-106743728D01*
X159494420Y-106743726D01*
X159494421Y-106743723D01*
X159561832Y-106617604D01*
X159652557Y-106507057D01*
X159763104Y-106416332D01*
X159889223Y-106348921D01*
X159889226Y-106348920D01*
X159889228Y-106348919D01*
X160026079Y-106307405D01*
X160111409Y-106299001D01*
X160132740Y-106296900D01*
X160204060Y-106296900D01*
X160225391Y-106299001D01*
X160225391Y-106299001D01*
G37*
G36*
X162225391Y-106299001D02*
X162310721Y-106307405D01*
X162447572Y-106348919D01*
X162447574Y-106348920D01*
X162447577Y-106348921D01*
X162573696Y-106416332D01*
X162684243Y-106507057D01*
X162774968Y-106617604D01*
X162842379Y-106743723D01*
X162842380Y-106743726D01*
X162842381Y-106743728D01*
X162883895Y-106880579D01*
X162897912Y-107022900D01*
X162883895Y-107165221D01*
X162842381Y-107302072D01*
X162842379Y-107302077D01*
X162774968Y-107428196D01*
X162684243Y-107538743D01*
X162573696Y-107629468D01*
X162447577Y-107696879D01*
X162447574Y-107696880D01*
X162447572Y-107696881D01*
X162310721Y-107738395D01*
X162225391Y-107746799D01*
X162204060Y-107748900D01*
X162132740Y-107748900D01*
X162111409Y-107746799D01*
X162026079Y-107738395D01*
X161889228Y-107696881D01*
X161889226Y-107696880D01*
X161889223Y-107696879D01*
X161763104Y-107629468D01*
X161652557Y-107538743D01*
X161561832Y-107428196D01*
X161494421Y-107302077D01*
X161494419Y-107302072D01*
X161452905Y-107165221D01*
X161438888Y-107022900D01*
X161452905Y-106880579D01*
X161494419Y-106743728D01*
X161494420Y-106743726D01*
X161494421Y-106743723D01*
X161561832Y-106617604D01*
X161652557Y-106507057D01*
X161763104Y-106416332D01*
X161889223Y-106348921D01*
X161889226Y-106348920D01*
X161889228Y-106348919D01*
X162026079Y-106307405D01*
X162111409Y-106299001D01*
X162132740Y-106296900D01*
X162204060Y-106296900D01*
X162225391Y-106299001D01*
X162225391Y-106299001D01*
G37*
G36*
X164225391Y-106299001D02*
X164310721Y-106307405D01*
X164447572Y-106348919D01*
X164447574Y-106348920D01*
X164447577Y-106348921D01*
X164573696Y-106416332D01*
X164684243Y-106507057D01*
X164774968Y-106617604D01*
X164842379Y-106743723D01*
X164842380Y-106743726D01*
X164842381Y-106743728D01*
X164883895Y-106880579D01*
X164897912Y-107022900D01*
X164883895Y-107165221D01*
X164842381Y-107302072D01*
X164842379Y-107302077D01*
X164774968Y-107428196D01*
X164684243Y-107538743D01*
X164573696Y-107629468D01*
X164447577Y-107696879D01*
X164447574Y-107696880D01*
X164447572Y-107696881D01*
X164310721Y-107738395D01*
X164225391Y-107746799D01*
X164204060Y-107748900D01*
X164132740Y-107748900D01*
X164111409Y-107746799D01*
X164026079Y-107738395D01*
X163889228Y-107696881D01*
X163889226Y-107696880D01*
X163889223Y-107696879D01*
X163763104Y-107629468D01*
X163652557Y-107538743D01*
X163561832Y-107428196D01*
X163494421Y-107302077D01*
X163494419Y-107302072D01*
X163452905Y-107165221D01*
X163438888Y-107022900D01*
X163452905Y-106880579D01*
X163494419Y-106743728D01*
X163494420Y-106743726D01*
X163494421Y-106743723D01*
X163561832Y-106617604D01*
X163652557Y-106507057D01*
X163763104Y-106416332D01*
X163889223Y-106348921D01*
X163889226Y-106348920D01*
X163889228Y-106348919D01*
X164026079Y-106307405D01*
X164111409Y-106299001D01*
X164132740Y-106296900D01*
X164204060Y-106296900D01*
X164225391Y-106299001D01*
X164225391Y-106299001D01*
G37*
G36*
X148225391Y-106299001D02*
X148310721Y-106307405D01*
X148447572Y-106348919D01*
X148447574Y-106348920D01*
X148447577Y-106348921D01*
X148573696Y-106416332D01*
X148684243Y-106507057D01*
X148774968Y-106617604D01*
X148842379Y-106743723D01*
X148842380Y-106743726D01*
X148842381Y-106743728D01*
X148883895Y-106880579D01*
X148897912Y-107022900D01*
X148883895Y-107165221D01*
X148842381Y-107302072D01*
X148842379Y-107302077D01*
X148774968Y-107428196D01*
X148684243Y-107538743D01*
X148573696Y-107629468D01*
X148447577Y-107696879D01*
X148447574Y-107696880D01*
X148447572Y-107696881D01*
X148310721Y-107738395D01*
X148225391Y-107746799D01*
X148204060Y-107748900D01*
X148132740Y-107748900D01*
X148111409Y-107746799D01*
X148026079Y-107738395D01*
X147889228Y-107696881D01*
X147889226Y-107696880D01*
X147889223Y-107696879D01*
X147763104Y-107629468D01*
X147652557Y-107538743D01*
X147561832Y-107428196D01*
X147494421Y-107302077D01*
X147494419Y-107302072D01*
X147452905Y-107165221D01*
X147438888Y-107022900D01*
X147452905Y-106880579D01*
X147494419Y-106743728D01*
X147494420Y-106743726D01*
X147494421Y-106743723D01*
X147561832Y-106617604D01*
X147652557Y-106507057D01*
X147763104Y-106416332D01*
X147889223Y-106348921D01*
X147889226Y-106348920D01*
X147889228Y-106348919D01*
X148026079Y-106307405D01*
X148111409Y-106299001D01*
X148132740Y-106296900D01*
X148204060Y-106296900D01*
X148225391Y-106299001D01*
X148225391Y-106299001D01*
G37*
G36*
X146225391Y-104299001D02*
X146310721Y-104307405D01*
X146447572Y-104348919D01*
X146447574Y-104348920D01*
X146447577Y-104348921D01*
X146573696Y-104416332D01*
X146684243Y-104507057D01*
X146774968Y-104617604D01*
X146842379Y-104743723D01*
X146842380Y-104743726D01*
X146842381Y-104743728D01*
X146883895Y-104880579D01*
X146897912Y-105022900D01*
X146883895Y-105165221D01*
X146842381Y-105302072D01*
X146842379Y-105302077D01*
X146774968Y-105428196D01*
X146684243Y-105538743D01*
X146573696Y-105629468D01*
X146447577Y-105696879D01*
X146447574Y-105696880D01*
X146447572Y-105696881D01*
X146310721Y-105738395D01*
X146225391Y-105746799D01*
X146204060Y-105748900D01*
X146132740Y-105748900D01*
X146111409Y-105746799D01*
X146026079Y-105738395D01*
X145889228Y-105696881D01*
X145889226Y-105696880D01*
X145889223Y-105696879D01*
X145763104Y-105629468D01*
X145652557Y-105538743D01*
X145561832Y-105428196D01*
X145494421Y-105302077D01*
X145494419Y-105302072D01*
X145452905Y-105165221D01*
X145438888Y-105022900D01*
X145452905Y-104880579D01*
X145494419Y-104743728D01*
X145494420Y-104743726D01*
X145494421Y-104743723D01*
X145561832Y-104617604D01*
X145652557Y-104507057D01*
X145763104Y-104416332D01*
X145889223Y-104348921D01*
X145889226Y-104348920D01*
X145889228Y-104348919D01*
X146026079Y-104307405D01*
X146111409Y-104299001D01*
X146132740Y-104296900D01*
X146204060Y-104296900D01*
X146225391Y-104299001D01*
X146225391Y-104299001D01*
G37*
G36*
X144225391Y-104299001D02*
X144310721Y-104307405D01*
X144447572Y-104348919D01*
X144447574Y-104348920D01*
X144447577Y-104348921D01*
X144573696Y-104416332D01*
X144684243Y-104507057D01*
X144774968Y-104617604D01*
X144842379Y-104743723D01*
X144842380Y-104743726D01*
X144842381Y-104743728D01*
X144883895Y-104880579D01*
X144897912Y-105022900D01*
X144883895Y-105165221D01*
X144842381Y-105302072D01*
X144842379Y-105302077D01*
X144774968Y-105428196D01*
X144684243Y-105538743D01*
X144573696Y-105629468D01*
X144447577Y-105696879D01*
X144447574Y-105696880D01*
X144447572Y-105696881D01*
X144310721Y-105738395D01*
X144225391Y-105746799D01*
X144204060Y-105748900D01*
X144132740Y-105748900D01*
X144111409Y-105746799D01*
X144026079Y-105738395D01*
X143889228Y-105696881D01*
X143889226Y-105696880D01*
X143889223Y-105696879D01*
X143763104Y-105629468D01*
X143652557Y-105538743D01*
X143561832Y-105428196D01*
X143494421Y-105302077D01*
X143494419Y-105302072D01*
X143452905Y-105165221D01*
X143438888Y-105022900D01*
X143452905Y-104880579D01*
X143494419Y-104743728D01*
X143494420Y-104743726D01*
X143494421Y-104743723D01*
X143561832Y-104617604D01*
X143652557Y-104507057D01*
X143763104Y-104416332D01*
X143889223Y-104348921D01*
X143889226Y-104348920D01*
X143889228Y-104348919D01*
X144026079Y-104307405D01*
X144111409Y-104299001D01*
X144132740Y-104296900D01*
X144204060Y-104296900D01*
X144225391Y-104299001D01*
X144225391Y-104299001D01*
G37*
G36*
X142225391Y-104299001D02*
X142310721Y-104307405D01*
X142447572Y-104348919D01*
X142447574Y-104348920D01*
X142447577Y-104348921D01*
X142573696Y-104416332D01*
X142684243Y-104507057D01*
X142774968Y-104617604D01*
X142842379Y-104743723D01*
X142842380Y-104743726D01*
X142842381Y-104743728D01*
X142883895Y-104880579D01*
X142897912Y-105022900D01*
X142883895Y-105165221D01*
X142842381Y-105302072D01*
X142842379Y-105302077D01*
X142774968Y-105428196D01*
X142684243Y-105538743D01*
X142573696Y-105629468D01*
X142447577Y-105696879D01*
X142447574Y-105696880D01*
X142447572Y-105696881D01*
X142310721Y-105738395D01*
X142225391Y-105746799D01*
X142204060Y-105748900D01*
X142132740Y-105748900D01*
X142111409Y-105746799D01*
X142026079Y-105738395D01*
X141889228Y-105696881D01*
X141889226Y-105696880D01*
X141889223Y-105696879D01*
X141763104Y-105629468D01*
X141652557Y-105538743D01*
X141561832Y-105428196D01*
X141494421Y-105302077D01*
X141494419Y-105302072D01*
X141452905Y-105165221D01*
X141438888Y-105022900D01*
X141452905Y-104880579D01*
X141494419Y-104743728D01*
X141494420Y-104743726D01*
X141494421Y-104743723D01*
X141561832Y-104617604D01*
X141652557Y-104507057D01*
X141763104Y-104416332D01*
X141889223Y-104348921D01*
X141889226Y-104348920D01*
X141889228Y-104348919D01*
X142026079Y-104307405D01*
X142111409Y-104299001D01*
X142132740Y-104296900D01*
X142204060Y-104296900D01*
X142225391Y-104299001D01*
X142225391Y-104299001D01*
G37*
G36*
X140225391Y-104299001D02*
X140310721Y-104307405D01*
X140447572Y-104348919D01*
X140447574Y-104348920D01*
X140447577Y-104348921D01*
X140573696Y-104416332D01*
X140684243Y-104507057D01*
X140774968Y-104617604D01*
X140842379Y-104743723D01*
X140842380Y-104743726D01*
X140842381Y-104743728D01*
X140883895Y-104880579D01*
X140897912Y-105022900D01*
X140883895Y-105165221D01*
X140842381Y-105302072D01*
X140842379Y-105302077D01*
X140774968Y-105428196D01*
X140684243Y-105538743D01*
X140573696Y-105629468D01*
X140447577Y-105696879D01*
X140447574Y-105696880D01*
X140447572Y-105696881D01*
X140310721Y-105738395D01*
X140225391Y-105746799D01*
X140204060Y-105748900D01*
X140132740Y-105748900D01*
X140111409Y-105746799D01*
X140026079Y-105738395D01*
X139889228Y-105696881D01*
X139889226Y-105696880D01*
X139889223Y-105696879D01*
X139763104Y-105629468D01*
X139652557Y-105538743D01*
X139561832Y-105428196D01*
X139494421Y-105302077D01*
X139494419Y-105302072D01*
X139452905Y-105165221D01*
X139438888Y-105022900D01*
X139452905Y-104880579D01*
X139494419Y-104743728D01*
X139494420Y-104743726D01*
X139494421Y-104743723D01*
X139561832Y-104617604D01*
X139652557Y-104507057D01*
X139763104Y-104416332D01*
X139889223Y-104348921D01*
X139889226Y-104348920D01*
X139889228Y-104348919D01*
X140026079Y-104307405D01*
X140111409Y-104299001D01*
X140132740Y-104296900D01*
X140204060Y-104296900D01*
X140225391Y-104299001D01*
X140225391Y-104299001D01*
G37*
G36*
X138225391Y-104299001D02*
X138310721Y-104307405D01*
X138447572Y-104348919D01*
X138447574Y-104348920D01*
X138447577Y-104348921D01*
X138573696Y-104416332D01*
X138684243Y-104507057D01*
X138774968Y-104617604D01*
X138842379Y-104743723D01*
X138842380Y-104743726D01*
X138842381Y-104743728D01*
X138883895Y-104880579D01*
X138897912Y-105022900D01*
X138883895Y-105165221D01*
X138842381Y-105302072D01*
X138842379Y-105302077D01*
X138774968Y-105428196D01*
X138684243Y-105538743D01*
X138573696Y-105629468D01*
X138447577Y-105696879D01*
X138447574Y-105696880D01*
X138447572Y-105696881D01*
X138310721Y-105738395D01*
X138225391Y-105746799D01*
X138204060Y-105748900D01*
X138132740Y-105748900D01*
X138111409Y-105746799D01*
X138026079Y-105738395D01*
X137889228Y-105696881D01*
X137889226Y-105696880D01*
X137889223Y-105696879D01*
X137763104Y-105629468D01*
X137652557Y-105538743D01*
X137561832Y-105428196D01*
X137494421Y-105302077D01*
X137494419Y-105302072D01*
X137452905Y-105165221D01*
X137438888Y-105022900D01*
X137452905Y-104880579D01*
X137494419Y-104743728D01*
X137494420Y-104743726D01*
X137494421Y-104743723D01*
X137561832Y-104617604D01*
X137652557Y-104507057D01*
X137763104Y-104416332D01*
X137889223Y-104348921D01*
X137889226Y-104348920D01*
X137889228Y-104348919D01*
X138026079Y-104307405D01*
X138111409Y-104299001D01*
X138132740Y-104296900D01*
X138204060Y-104296900D01*
X138225391Y-104299001D01*
X138225391Y-104299001D01*
G37*
G36*
X136225391Y-104299001D02*
X136310721Y-104307405D01*
X136447572Y-104348919D01*
X136447574Y-104348920D01*
X136447577Y-104348921D01*
X136573696Y-104416332D01*
X136684243Y-104507057D01*
X136774968Y-104617604D01*
X136842379Y-104743723D01*
X136842380Y-104743726D01*
X136842381Y-104743728D01*
X136883895Y-104880579D01*
X136897912Y-105022900D01*
X136883895Y-105165221D01*
X136842381Y-105302072D01*
X136842379Y-105302077D01*
X136774968Y-105428196D01*
X136684243Y-105538743D01*
X136573696Y-105629468D01*
X136447577Y-105696879D01*
X136447574Y-105696880D01*
X136447572Y-105696881D01*
X136310721Y-105738395D01*
X136225391Y-105746799D01*
X136204060Y-105748900D01*
X136132740Y-105748900D01*
X136111409Y-105746799D01*
X136026079Y-105738395D01*
X135889228Y-105696881D01*
X135889226Y-105696880D01*
X135889223Y-105696879D01*
X135763104Y-105629468D01*
X135652557Y-105538743D01*
X135561832Y-105428196D01*
X135494421Y-105302077D01*
X135494419Y-105302072D01*
X135452905Y-105165221D01*
X135438888Y-105022900D01*
X135452905Y-104880579D01*
X135494419Y-104743728D01*
X135494420Y-104743726D01*
X135494421Y-104743723D01*
X135561832Y-104617604D01*
X135652557Y-104507057D01*
X135763104Y-104416332D01*
X135889223Y-104348921D01*
X135889226Y-104348920D01*
X135889228Y-104348919D01*
X136026079Y-104307405D01*
X136111409Y-104299001D01*
X136132740Y-104296900D01*
X136204060Y-104296900D01*
X136225391Y-104299001D01*
X136225391Y-104299001D01*
G37*
G36*
X134225391Y-104299001D02*
X134310721Y-104307405D01*
X134447572Y-104348919D01*
X134447574Y-104348920D01*
X134447577Y-104348921D01*
X134573696Y-104416332D01*
X134684243Y-104507057D01*
X134774968Y-104617604D01*
X134842379Y-104743723D01*
X134842380Y-104743726D01*
X134842381Y-104743728D01*
X134883895Y-104880579D01*
X134897912Y-105022900D01*
X134883895Y-105165221D01*
X134842381Y-105302072D01*
X134842379Y-105302077D01*
X134774968Y-105428196D01*
X134684243Y-105538743D01*
X134573696Y-105629468D01*
X134447577Y-105696879D01*
X134447574Y-105696880D01*
X134447572Y-105696881D01*
X134310721Y-105738395D01*
X134225391Y-105746799D01*
X134204060Y-105748900D01*
X134132740Y-105748900D01*
X134111409Y-105746799D01*
X134026079Y-105738395D01*
X133889228Y-105696881D01*
X133889226Y-105696880D01*
X133889223Y-105696879D01*
X133763104Y-105629468D01*
X133652557Y-105538743D01*
X133561832Y-105428196D01*
X133494421Y-105302077D01*
X133494419Y-105302072D01*
X133452905Y-105165221D01*
X133438888Y-105022900D01*
X133452905Y-104880579D01*
X133494419Y-104743728D01*
X133494420Y-104743726D01*
X133494421Y-104743723D01*
X133561832Y-104617604D01*
X133652557Y-104507057D01*
X133763104Y-104416332D01*
X133889223Y-104348921D01*
X133889226Y-104348920D01*
X133889228Y-104348919D01*
X134026079Y-104307405D01*
X134111409Y-104299001D01*
X134132740Y-104296900D01*
X134204060Y-104296900D01*
X134225391Y-104299001D01*
X134225391Y-104299001D01*
G37*
G36*
X132225391Y-104299001D02*
X132310721Y-104307405D01*
X132447572Y-104348919D01*
X132447574Y-104348920D01*
X132447577Y-104348921D01*
X132573696Y-104416332D01*
X132684243Y-104507057D01*
X132774968Y-104617604D01*
X132842379Y-104743723D01*
X132842380Y-104743726D01*
X132842381Y-104743728D01*
X132883895Y-104880579D01*
X132897912Y-105022900D01*
X132883895Y-105165221D01*
X132842381Y-105302072D01*
X132842379Y-105302077D01*
X132774968Y-105428196D01*
X132684243Y-105538743D01*
X132573696Y-105629468D01*
X132447577Y-105696879D01*
X132447574Y-105696880D01*
X132447572Y-105696881D01*
X132310721Y-105738395D01*
X132225391Y-105746799D01*
X132204060Y-105748900D01*
X132132740Y-105748900D01*
X132111409Y-105746799D01*
X132026079Y-105738395D01*
X131889228Y-105696881D01*
X131889226Y-105696880D01*
X131889223Y-105696879D01*
X131763104Y-105629468D01*
X131652557Y-105538743D01*
X131561832Y-105428196D01*
X131494421Y-105302077D01*
X131494419Y-105302072D01*
X131452905Y-105165221D01*
X131438888Y-105022900D01*
X131452905Y-104880579D01*
X131494419Y-104743728D01*
X131494420Y-104743726D01*
X131494421Y-104743723D01*
X131561832Y-104617604D01*
X131652557Y-104507057D01*
X131763104Y-104416332D01*
X131889223Y-104348921D01*
X131889226Y-104348920D01*
X131889228Y-104348919D01*
X132026079Y-104307405D01*
X132111409Y-104299001D01*
X132132740Y-104296900D01*
X132204060Y-104296900D01*
X132225391Y-104299001D01*
X132225391Y-104299001D01*
G37*
G36*
X130225391Y-104299001D02*
X130310721Y-104307405D01*
X130447572Y-104348919D01*
X130447574Y-104348920D01*
X130447577Y-104348921D01*
X130573696Y-104416332D01*
X130684243Y-104507057D01*
X130774968Y-104617604D01*
X130842379Y-104743723D01*
X130842380Y-104743726D01*
X130842381Y-104743728D01*
X130883895Y-104880579D01*
X130897912Y-105022900D01*
X130883895Y-105165221D01*
X130842381Y-105302072D01*
X130842379Y-105302077D01*
X130774968Y-105428196D01*
X130684243Y-105538743D01*
X130573696Y-105629468D01*
X130447577Y-105696879D01*
X130447574Y-105696880D01*
X130447572Y-105696881D01*
X130310721Y-105738395D01*
X130225391Y-105746799D01*
X130204060Y-105748900D01*
X130132740Y-105748900D01*
X130111409Y-105746799D01*
X130026079Y-105738395D01*
X129889228Y-105696881D01*
X129889226Y-105696880D01*
X129889223Y-105696879D01*
X129763104Y-105629468D01*
X129652557Y-105538743D01*
X129561832Y-105428196D01*
X129494421Y-105302077D01*
X129494419Y-105302072D01*
X129452905Y-105165221D01*
X129438888Y-105022900D01*
X129452905Y-104880579D01*
X129494419Y-104743728D01*
X129494420Y-104743726D01*
X129494421Y-104743723D01*
X129561832Y-104617604D01*
X129652557Y-104507057D01*
X129763104Y-104416332D01*
X129889223Y-104348921D01*
X129889226Y-104348920D01*
X129889228Y-104348919D01*
X130026079Y-104307405D01*
X130111409Y-104299001D01*
X130132740Y-104296900D01*
X130204060Y-104296900D01*
X130225391Y-104299001D01*
X130225391Y-104299001D01*
G37*
G36*
X128225391Y-104299001D02*
X128310721Y-104307405D01*
X128447572Y-104348919D01*
X128447574Y-104348920D01*
X128447577Y-104348921D01*
X128573696Y-104416332D01*
X128684243Y-104507057D01*
X128774968Y-104617604D01*
X128842379Y-104743723D01*
X128842380Y-104743726D01*
X128842381Y-104743728D01*
X128883895Y-104880579D01*
X128897912Y-105022900D01*
X128883895Y-105165221D01*
X128842381Y-105302072D01*
X128842379Y-105302077D01*
X128774968Y-105428196D01*
X128684243Y-105538743D01*
X128573696Y-105629468D01*
X128447577Y-105696879D01*
X128447574Y-105696880D01*
X128447572Y-105696881D01*
X128310721Y-105738395D01*
X128225391Y-105746799D01*
X128204060Y-105748900D01*
X128132740Y-105748900D01*
X128111409Y-105746799D01*
X128026079Y-105738395D01*
X127889228Y-105696881D01*
X127889226Y-105696880D01*
X127889223Y-105696879D01*
X127763104Y-105629468D01*
X127652557Y-105538743D01*
X127561832Y-105428196D01*
X127494421Y-105302077D01*
X127494419Y-105302072D01*
X127452905Y-105165221D01*
X127438888Y-105022900D01*
X127452905Y-104880579D01*
X127494419Y-104743728D01*
X127494420Y-104743726D01*
X127494421Y-104743723D01*
X127561832Y-104617604D01*
X127652557Y-104507057D01*
X127763104Y-104416332D01*
X127889223Y-104348921D01*
X127889226Y-104348920D01*
X127889228Y-104348919D01*
X128026079Y-104307405D01*
X128111409Y-104299001D01*
X128132740Y-104296900D01*
X128204060Y-104296900D01*
X128225391Y-104299001D01*
X128225391Y-104299001D01*
G37*
G36*
X150225391Y-104299001D02*
X150310721Y-104307405D01*
X150447572Y-104348919D01*
X150447574Y-104348920D01*
X150447577Y-104348921D01*
X150573696Y-104416332D01*
X150684243Y-104507057D01*
X150774968Y-104617604D01*
X150842379Y-104743723D01*
X150842380Y-104743726D01*
X150842381Y-104743728D01*
X150883895Y-104880579D01*
X150897912Y-105022900D01*
X150883895Y-105165221D01*
X150842381Y-105302072D01*
X150842379Y-105302077D01*
X150774968Y-105428196D01*
X150684243Y-105538743D01*
X150573696Y-105629468D01*
X150447577Y-105696879D01*
X150447574Y-105696880D01*
X150447572Y-105696881D01*
X150310721Y-105738395D01*
X150225391Y-105746799D01*
X150204060Y-105748900D01*
X150132740Y-105748900D01*
X150111409Y-105746799D01*
X150026079Y-105738395D01*
X149889228Y-105696881D01*
X149889226Y-105696880D01*
X149889223Y-105696879D01*
X149763104Y-105629468D01*
X149652557Y-105538743D01*
X149561832Y-105428196D01*
X149494421Y-105302077D01*
X149494419Y-105302072D01*
X149452905Y-105165221D01*
X149438888Y-105022900D01*
X149452905Y-104880579D01*
X149494419Y-104743728D01*
X149494420Y-104743726D01*
X149494421Y-104743723D01*
X149561832Y-104617604D01*
X149652557Y-104507057D01*
X149763104Y-104416332D01*
X149889223Y-104348921D01*
X149889226Y-104348920D01*
X149889228Y-104348919D01*
X150026079Y-104307405D01*
X150111409Y-104299001D01*
X150132740Y-104296900D01*
X150204060Y-104296900D01*
X150225391Y-104299001D01*
X150225391Y-104299001D01*
G37*
G36*
X148225391Y-104299001D02*
X148310721Y-104307405D01*
X148447572Y-104348919D01*
X148447574Y-104348920D01*
X148447577Y-104348921D01*
X148573696Y-104416332D01*
X148684243Y-104507057D01*
X148774968Y-104617604D01*
X148842379Y-104743723D01*
X148842380Y-104743726D01*
X148842381Y-104743728D01*
X148883895Y-104880579D01*
X148897912Y-105022900D01*
X148883895Y-105165221D01*
X148842381Y-105302072D01*
X148842379Y-105302077D01*
X148774968Y-105428196D01*
X148684243Y-105538743D01*
X148573696Y-105629468D01*
X148447577Y-105696879D01*
X148447574Y-105696880D01*
X148447572Y-105696881D01*
X148310721Y-105738395D01*
X148225391Y-105746799D01*
X148204060Y-105748900D01*
X148132740Y-105748900D01*
X148111409Y-105746799D01*
X148026079Y-105738395D01*
X147889228Y-105696881D01*
X147889226Y-105696880D01*
X147889223Y-105696879D01*
X147763104Y-105629468D01*
X147652557Y-105538743D01*
X147561832Y-105428196D01*
X147494421Y-105302077D01*
X147494419Y-105302072D01*
X147452905Y-105165221D01*
X147438888Y-105022900D01*
X147452905Y-104880579D01*
X147494419Y-104743728D01*
X147494420Y-104743726D01*
X147494421Y-104743723D01*
X147561832Y-104617604D01*
X147652557Y-104507057D01*
X147763104Y-104416332D01*
X147889223Y-104348921D01*
X147889226Y-104348920D01*
X147889228Y-104348919D01*
X148026079Y-104307405D01*
X148111409Y-104299001D01*
X148132740Y-104296900D01*
X148204060Y-104296900D01*
X148225391Y-104299001D01*
X148225391Y-104299001D01*
G37*
G36*
X160225391Y-104299001D02*
X160310721Y-104307405D01*
X160447572Y-104348919D01*
X160447574Y-104348920D01*
X160447577Y-104348921D01*
X160573696Y-104416332D01*
X160684243Y-104507057D01*
X160774968Y-104617604D01*
X160842379Y-104743723D01*
X160842380Y-104743726D01*
X160842381Y-104743728D01*
X160883895Y-104880579D01*
X160897912Y-105022900D01*
X160883895Y-105165221D01*
X160842381Y-105302072D01*
X160842379Y-105302077D01*
X160774968Y-105428196D01*
X160684243Y-105538743D01*
X160573696Y-105629468D01*
X160447577Y-105696879D01*
X160447574Y-105696880D01*
X160447572Y-105696881D01*
X160310721Y-105738395D01*
X160225391Y-105746799D01*
X160204060Y-105748900D01*
X160132740Y-105748900D01*
X160111409Y-105746799D01*
X160026079Y-105738395D01*
X159889228Y-105696881D01*
X159889226Y-105696880D01*
X159889223Y-105696879D01*
X159763104Y-105629468D01*
X159652557Y-105538743D01*
X159561832Y-105428196D01*
X159494421Y-105302077D01*
X159494419Y-105302072D01*
X159452905Y-105165221D01*
X159438888Y-105022900D01*
X159452905Y-104880579D01*
X159494419Y-104743728D01*
X159494420Y-104743726D01*
X159494421Y-104743723D01*
X159561832Y-104617604D01*
X159652557Y-104507057D01*
X159763104Y-104416332D01*
X159889223Y-104348921D01*
X159889226Y-104348920D01*
X159889228Y-104348919D01*
X160026079Y-104307405D01*
X160111409Y-104299001D01*
X160132740Y-104296900D01*
X160204060Y-104296900D01*
X160225391Y-104299001D01*
X160225391Y-104299001D01*
G37*
G36*
X162225391Y-104299001D02*
X162310721Y-104307405D01*
X162447572Y-104348919D01*
X162447574Y-104348920D01*
X162447577Y-104348921D01*
X162573696Y-104416332D01*
X162684243Y-104507057D01*
X162774968Y-104617604D01*
X162842379Y-104743723D01*
X162842380Y-104743726D01*
X162842381Y-104743728D01*
X162883895Y-104880579D01*
X162897912Y-105022900D01*
X162883895Y-105165221D01*
X162842381Y-105302072D01*
X162842379Y-105302077D01*
X162774968Y-105428196D01*
X162684243Y-105538743D01*
X162573696Y-105629468D01*
X162447577Y-105696879D01*
X162447574Y-105696880D01*
X162447572Y-105696881D01*
X162310721Y-105738395D01*
X162225391Y-105746799D01*
X162204060Y-105748900D01*
X162132740Y-105748900D01*
X162111409Y-105746799D01*
X162026079Y-105738395D01*
X161889228Y-105696881D01*
X161889226Y-105696880D01*
X161889223Y-105696879D01*
X161763104Y-105629468D01*
X161652557Y-105538743D01*
X161561832Y-105428196D01*
X161494421Y-105302077D01*
X161494419Y-105302072D01*
X161452905Y-105165221D01*
X161438888Y-105022900D01*
X161452905Y-104880579D01*
X161494419Y-104743728D01*
X161494420Y-104743726D01*
X161494421Y-104743723D01*
X161561832Y-104617604D01*
X161652557Y-104507057D01*
X161763104Y-104416332D01*
X161889223Y-104348921D01*
X161889226Y-104348920D01*
X161889228Y-104348919D01*
X162026079Y-104307405D01*
X162111409Y-104299001D01*
X162132740Y-104296900D01*
X162204060Y-104296900D01*
X162225391Y-104299001D01*
X162225391Y-104299001D01*
G37*
G36*
X158225391Y-104299001D02*
X158310721Y-104307405D01*
X158447572Y-104348919D01*
X158447574Y-104348920D01*
X158447577Y-104348921D01*
X158573696Y-104416332D01*
X158684243Y-104507057D01*
X158774968Y-104617604D01*
X158842379Y-104743723D01*
X158842380Y-104743726D01*
X158842381Y-104743728D01*
X158883895Y-104880579D01*
X158897912Y-105022900D01*
X158883895Y-105165221D01*
X158842381Y-105302072D01*
X158842379Y-105302077D01*
X158774968Y-105428196D01*
X158684243Y-105538743D01*
X158573696Y-105629468D01*
X158447577Y-105696879D01*
X158447574Y-105696880D01*
X158447572Y-105696881D01*
X158310721Y-105738395D01*
X158225391Y-105746799D01*
X158204060Y-105748900D01*
X158132740Y-105748900D01*
X158111409Y-105746799D01*
X158026079Y-105738395D01*
X157889228Y-105696881D01*
X157889226Y-105696880D01*
X157889223Y-105696879D01*
X157763104Y-105629468D01*
X157652557Y-105538743D01*
X157561832Y-105428196D01*
X157494421Y-105302077D01*
X157494419Y-105302072D01*
X157452905Y-105165221D01*
X157438888Y-105022900D01*
X157452905Y-104880579D01*
X157494419Y-104743728D01*
X157494420Y-104743726D01*
X157494421Y-104743723D01*
X157561832Y-104617604D01*
X157652557Y-104507057D01*
X157763104Y-104416332D01*
X157889223Y-104348921D01*
X157889226Y-104348920D01*
X157889228Y-104348919D01*
X158026079Y-104307405D01*
X158111409Y-104299001D01*
X158132740Y-104296900D01*
X158204060Y-104296900D01*
X158225391Y-104299001D01*
X158225391Y-104299001D01*
G37*
G36*
X164225391Y-104299001D02*
X164310721Y-104307405D01*
X164447572Y-104348919D01*
X164447574Y-104348920D01*
X164447577Y-104348921D01*
X164573696Y-104416332D01*
X164684243Y-104507057D01*
X164774968Y-104617604D01*
X164842379Y-104743723D01*
X164842380Y-104743726D01*
X164842381Y-104743728D01*
X164883895Y-104880579D01*
X164897912Y-105022900D01*
X164883895Y-105165221D01*
X164842381Y-105302072D01*
X164842379Y-105302077D01*
X164774968Y-105428196D01*
X164684243Y-105538743D01*
X164573696Y-105629468D01*
X164447577Y-105696879D01*
X164447574Y-105696880D01*
X164447572Y-105696881D01*
X164310721Y-105738395D01*
X164225391Y-105746799D01*
X164204060Y-105748900D01*
X164132740Y-105748900D01*
X164111409Y-105746799D01*
X164026079Y-105738395D01*
X163889228Y-105696881D01*
X163889226Y-105696880D01*
X163889223Y-105696879D01*
X163763104Y-105629468D01*
X163652557Y-105538743D01*
X163561832Y-105428196D01*
X163494421Y-105302077D01*
X163494419Y-105302072D01*
X163452905Y-105165221D01*
X163438888Y-105022900D01*
X163452905Y-104880579D01*
X163494419Y-104743728D01*
X163494420Y-104743726D01*
X163494421Y-104743723D01*
X163561832Y-104617604D01*
X163652557Y-104507057D01*
X163763104Y-104416332D01*
X163889223Y-104348921D01*
X163889226Y-104348920D01*
X163889228Y-104348919D01*
X164026079Y-104307405D01*
X164111409Y-104299001D01*
X164132740Y-104296900D01*
X164204060Y-104296900D01*
X164225391Y-104299001D01*
X164225391Y-104299001D01*
G37*
G36*
X166225391Y-104299001D02*
X166310721Y-104307405D01*
X166447572Y-104348919D01*
X166447574Y-104348920D01*
X166447577Y-104348921D01*
X166573696Y-104416332D01*
X166684243Y-104507057D01*
X166774968Y-104617604D01*
X166842379Y-104743723D01*
X166842380Y-104743726D01*
X166842381Y-104743728D01*
X166883895Y-104880579D01*
X166897912Y-105022900D01*
X166883895Y-105165221D01*
X166842381Y-105302072D01*
X166842379Y-105302077D01*
X166774968Y-105428196D01*
X166684243Y-105538743D01*
X166573696Y-105629468D01*
X166447577Y-105696879D01*
X166447574Y-105696880D01*
X166447572Y-105696881D01*
X166310721Y-105738395D01*
X166225391Y-105746799D01*
X166204060Y-105748900D01*
X166132740Y-105748900D01*
X166111409Y-105746799D01*
X166026079Y-105738395D01*
X165889228Y-105696881D01*
X165889226Y-105696880D01*
X165889223Y-105696879D01*
X165763104Y-105629468D01*
X165652557Y-105538743D01*
X165561832Y-105428196D01*
X165494421Y-105302077D01*
X165494419Y-105302072D01*
X165452905Y-105165221D01*
X165438888Y-105022900D01*
X165452905Y-104880579D01*
X165494419Y-104743728D01*
X165494420Y-104743726D01*
X165494421Y-104743723D01*
X165561832Y-104617604D01*
X165652557Y-104507057D01*
X165763104Y-104416332D01*
X165889223Y-104348921D01*
X165889226Y-104348920D01*
X165889228Y-104348919D01*
X166026079Y-104307405D01*
X166111409Y-104299001D01*
X166132740Y-104296900D01*
X166204060Y-104296900D01*
X166225391Y-104299001D01*
X166225391Y-104299001D01*
G37*
G36*
X154225391Y-104299001D02*
X154310721Y-104307405D01*
X154447572Y-104348919D01*
X154447574Y-104348920D01*
X154447577Y-104348921D01*
X154573696Y-104416332D01*
X154684243Y-104507057D01*
X154774968Y-104617604D01*
X154842379Y-104743723D01*
X154842380Y-104743726D01*
X154842381Y-104743728D01*
X154883895Y-104880579D01*
X154897912Y-105022900D01*
X154883895Y-105165221D01*
X154842381Y-105302072D01*
X154842379Y-105302077D01*
X154774968Y-105428196D01*
X154684243Y-105538743D01*
X154573696Y-105629468D01*
X154447577Y-105696879D01*
X154447574Y-105696880D01*
X154447572Y-105696881D01*
X154310721Y-105738395D01*
X154225391Y-105746799D01*
X154204060Y-105748900D01*
X154132740Y-105748900D01*
X154111409Y-105746799D01*
X154026079Y-105738395D01*
X153889228Y-105696881D01*
X153889226Y-105696880D01*
X153889223Y-105696879D01*
X153763104Y-105629468D01*
X153652557Y-105538743D01*
X153561832Y-105428196D01*
X153494421Y-105302077D01*
X153494419Y-105302072D01*
X153452905Y-105165221D01*
X153438888Y-105022900D01*
X153452905Y-104880579D01*
X153494419Y-104743728D01*
X153494420Y-104743726D01*
X153494421Y-104743723D01*
X153561832Y-104617604D01*
X153652557Y-104507057D01*
X153763104Y-104416332D01*
X153889223Y-104348921D01*
X153889226Y-104348920D01*
X153889228Y-104348919D01*
X154026079Y-104307405D01*
X154111409Y-104299001D01*
X154132740Y-104296900D01*
X154204060Y-104296900D01*
X154225391Y-104299001D01*
X154225391Y-104299001D01*
G37*
G36*
X152225391Y-104299001D02*
X152310721Y-104307405D01*
X152447572Y-104348919D01*
X152447574Y-104348920D01*
X152447577Y-104348921D01*
X152573696Y-104416332D01*
X152684243Y-104507057D01*
X152774968Y-104617604D01*
X152842379Y-104743723D01*
X152842380Y-104743726D01*
X152842381Y-104743728D01*
X152883895Y-104880579D01*
X152897912Y-105022900D01*
X152883895Y-105165221D01*
X152842381Y-105302072D01*
X152842379Y-105302077D01*
X152774968Y-105428196D01*
X152684243Y-105538743D01*
X152573696Y-105629468D01*
X152447577Y-105696879D01*
X152447574Y-105696880D01*
X152447572Y-105696881D01*
X152310721Y-105738395D01*
X152225391Y-105746799D01*
X152204060Y-105748900D01*
X152132740Y-105748900D01*
X152111409Y-105746799D01*
X152026079Y-105738395D01*
X151889228Y-105696881D01*
X151889226Y-105696880D01*
X151889223Y-105696879D01*
X151763104Y-105629468D01*
X151652557Y-105538743D01*
X151561832Y-105428196D01*
X151494421Y-105302077D01*
X151494419Y-105302072D01*
X151452905Y-105165221D01*
X151438888Y-105022900D01*
X151452905Y-104880579D01*
X151494419Y-104743728D01*
X151494420Y-104743726D01*
X151494421Y-104743723D01*
X151561832Y-104617604D01*
X151652557Y-104507057D01*
X151763104Y-104416332D01*
X151889223Y-104348921D01*
X151889226Y-104348920D01*
X151889228Y-104348919D01*
X152026079Y-104307405D01*
X152111409Y-104299001D01*
X152132740Y-104296900D01*
X152204060Y-104296900D01*
X152225391Y-104299001D01*
X152225391Y-104299001D01*
G37*
G36*
X156225391Y-104299001D02*
X156310721Y-104307405D01*
X156447572Y-104348919D01*
X156447574Y-104348920D01*
X156447577Y-104348921D01*
X156573696Y-104416332D01*
X156684243Y-104507057D01*
X156774968Y-104617604D01*
X156842379Y-104743723D01*
X156842380Y-104743726D01*
X156842381Y-104743728D01*
X156883895Y-104880579D01*
X156897912Y-105022900D01*
X156883895Y-105165221D01*
X156842381Y-105302072D01*
X156842379Y-105302077D01*
X156774968Y-105428196D01*
X156684243Y-105538743D01*
X156573696Y-105629468D01*
X156447577Y-105696879D01*
X156447574Y-105696880D01*
X156447572Y-105696881D01*
X156310721Y-105738395D01*
X156225391Y-105746799D01*
X156204060Y-105748900D01*
X156132740Y-105748900D01*
X156111409Y-105746799D01*
X156026079Y-105738395D01*
X155889228Y-105696881D01*
X155889226Y-105696880D01*
X155889223Y-105696879D01*
X155763104Y-105629468D01*
X155652557Y-105538743D01*
X155561832Y-105428196D01*
X155494421Y-105302077D01*
X155494419Y-105302072D01*
X155452905Y-105165221D01*
X155438888Y-105022900D01*
X155452905Y-104880579D01*
X155494419Y-104743728D01*
X155494420Y-104743726D01*
X155494421Y-104743723D01*
X155561832Y-104617604D01*
X155652557Y-104507057D01*
X155763104Y-104416332D01*
X155889223Y-104348921D01*
X155889226Y-104348920D01*
X155889228Y-104348919D01*
X156026079Y-104307405D01*
X156111409Y-104299001D01*
X156132740Y-104296900D01*
X156204060Y-104296900D01*
X156225391Y-104299001D01*
X156225391Y-104299001D01*
G37*
G36*
X159323221Y-100151713D02*
X159323224Y-100151714D01*
X159323225Y-100151714D01*
X159483639Y-100200375D01*
X159483641Y-100200376D01*
X159483644Y-100200377D01*
X159631478Y-100279395D01*
X159761059Y-100385741D01*
X159867405Y-100515322D01*
X159946423Y-100663156D01*
X159995087Y-100823579D01*
X160011517Y-100990400D01*
X159995087Y-101157221D01*
X159946423Y-101317644D01*
X159867405Y-101465478D01*
X159761059Y-101595059D01*
X159631478Y-101701405D01*
X159483644Y-101780423D01*
X159483641Y-101780424D01*
X159483639Y-101780425D01*
X159323225Y-101829086D01*
X159323224Y-101829086D01*
X159323221Y-101829087D01*
X159198204Y-101841400D01*
X159114596Y-101841400D01*
X158989579Y-101829087D01*
X158989576Y-101829086D01*
X158989575Y-101829086D01*
X158829161Y-101780425D01*
X158829159Y-101780424D01*
X158829156Y-101780423D01*
X158681322Y-101701405D01*
X158551741Y-101595059D01*
X158445395Y-101465478D01*
X158366377Y-101317644D01*
X158317713Y-101157221D01*
X158301283Y-100990400D01*
X158317713Y-100823579D01*
X158366377Y-100663156D01*
X158445395Y-100515322D01*
X158551741Y-100385741D01*
X158681322Y-100279395D01*
X158829156Y-100200377D01*
X158829159Y-100200376D01*
X158829161Y-100200375D01*
X158989575Y-100151714D01*
X158989576Y-100151714D01*
X158989579Y-100151713D01*
X159114596Y-100139400D01*
X159198204Y-100139400D01*
X159323221Y-100151713D01*
X159323221Y-100151713D01*
G37*
G36*
X151703221Y-100151713D02*
X151703224Y-100151714D01*
X151703225Y-100151714D01*
X151863639Y-100200375D01*
X151863641Y-100200376D01*
X151863644Y-100200377D01*
X152011478Y-100279395D01*
X152141059Y-100385741D01*
X152247405Y-100515322D01*
X152326423Y-100663156D01*
X152375087Y-100823579D01*
X152391517Y-100990400D01*
X152375087Y-101157221D01*
X152326423Y-101317644D01*
X152247405Y-101465478D01*
X152141059Y-101595059D01*
X152011478Y-101701405D01*
X151863644Y-101780423D01*
X151863641Y-101780424D01*
X151863639Y-101780425D01*
X151703225Y-101829086D01*
X151703224Y-101829086D01*
X151703221Y-101829087D01*
X151578204Y-101841400D01*
X151494596Y-101841400D01*
X151369579Y-101829087D01*
X151369576Y-101829086D01*
X151369575Y-101829086D01*
X151209161Y-101780425D01*
X151209159Y-101780424D01*
X151209156Y-101780423D01*
X151061322Y-101701405D01*
X150931741Y-101595059D01*
X150825395Y-101465478D01*
X150746377Y-101317644D01*
X150697713Y-101157221D01*
X150681283Y-100990400D01*
X150697713Y-100823579D01*
X150746377Y-100663156D01*
X150825395Y-100515322D01*
X150931741Y-100385741D01*
X151061322Y-100279395D01*
X151209156Y-100200377D01*
X151209159Y-100200376D01*
X151209161Y-100200375D01*
X151369575Y-100151714D01*
X151369576Y-100151714D01*
X151369579Y-100151713D01*
X151494596Y-100139400D01*
X151578204Y-100139400D01*
X151703221Y-100151713D01*
X151703221Y-100151713D01*
G37*
G36*
X167947800Y-101816000D02*
X165845800Y-101816000D01*
X165845800Y-100114000D01*
X167947800Y-100114000D01*
X167947800Y-101816000D01*
X167947800Y-101816000D01*
G37*
G36*
X163947800Y-101816000D02*
X161845800Y-101816000D01*
X161845800Y-100114000D01*
X163947800Y-100114000D01*
X163947800Y-101816000D01*
X163947800Y-101816000D01*
G37*
G36*
X139058000Y-100577000D02*
X136786000Y-100577000D01*
X136786000Y-98305000D01*
X139058000Y-98305000D01*
X139058000Y-100577000D01*
X139058000Y-100577000D01*
G37*
G36*
X159323221Y-97611713D02*
X159323224Y-97611714D01*
X159323225Y-97611714D01*
X159483639Y-97660375D01*
X159483641Y-97660376D01*
X159483644Y-97660377D01*
X159631478Y-97739395D01*
X159761059Y-97845741D01*
X159867405Y-97975322D01*
X159946423Y-98123156D01*
X159995087Y-98283579D01*
X160011517Y-98450400D01*
X159995087Y-98617221D01*
X159946423Y-98777644D01*
X159867405Y-98925478D01*
X159761059Y-99055059D01*
X159631478Y-99161405D01*
X159483644Y-99240423D01*
X159483641Y-99240424D01*
X159483639Y-99240425D01*
X159323225Y-99289086D01*
X159323224Y-99289086D01*
X159323221Y-99289087D01*
X159198204Y-99301400D01*
X159114596Y-99301400D01*
X158989579Y-99289087D01*
X158989576Y-99289086D01*
X158989575Y-99289086D01*
X158829161Y-99240425D01*
X158829159Y-99240424D01*
X158829156Y-99240423D01*
X158681322Y-99161405D01*
X158551741Y-99055059D01*
X158445395Y-98925478D01*
X158366377Y-98777644D01*
X158317713Y-98617221D01*
X158301283Y-98450400D01*
X158317713Y-98283579D01*
X158366377Y-98123156D01*
X158445395Y-97975322D01*
X158551741Y-97845741D01*
X158681322Y-97739395D01*
X158829156Y-97660377D01*
X158829159Y-97660376D01*
X158829161Y-97660375D01*
X158989575Y-97611714D01*
X158989576Y-97611714D01*
X158989579Y-97611713D01*
X159114596Y-97599400D01*
X159198204Y-97599400D01*
X159323221Y-97611713D01*
X159323221Y-97611713D01*
G37*
G36*
X151703221Y-97611713D02*
X151703224Y-97611714D01*
X151703225Y-97611714D01*
X151863639Y-97660375D01*
X151863641Y-97660376D01*
X151863644Y-97660377D01*
X152011478Y-97739395D01*
X152141059Y-97845741D01*
X152247405Y-97975322D01*
X152326423Y-98123156D01*
X152375087Y-98283579D01*
X152391517Y-98450400D01*
X152375087Y-98617221D01*
X152326423Y-98777644D01*
X152247405Y-98925478D01*
X152141059Y-99055059D01*
X152011478Y-99161405D01*
X151863644Y-99240423D01*
X151863641Y-99240424D01*
X151863639Y-99240425D01*
X151703225Y-99289086D01*
X151703224Y-99289086D01*
X151703221Y-99289087D01*
X151578204Y-99301400D01*
X151494596Y-99301400D01*
X151369579Y-99289087D01*
X151369576Y-99289086D01*
X151369575Y-99289086D01*
X151209161Y-99240425D01*
X151209159Y-99240424D01*
X151209156Y-99240423D01*
X151061322Y-99161405D01*
X150931741Y-99055059D01*
X150825395Y-98925478D01*
X150746377Y-98777644D01*
X150697713Y-98617221D01*
X150681283Y-98450400D01*
X150697713Y-98283579D01*
X150746377Y-98123156D01*
X150825395Y-97975322D01*
X150931741Y-97845741D01*
X151061322Y-97739395D01*
X151209156Y-97660377D01*
X151209159Y-97660376D01*
X151209161Y-97660375D01*
X151369575Y-97611714D01*
X151369576Y-97611714D01*
X151369579Y-97611713D01*
X151494596Y-97599400D01*
X151578204Y-97599400D01*
X151703221Y-97611713D01*
X151703221Y-97611713D01*
G37*
G36*
X166133400Y-97499000D02*
X164531400Y-97499000D01*
X164531400Y-96097000D01*
X166133400Y-96097000D01*
X166133400Y-97499000D01*
X166133400Y-97499000D01*
G37*
G36*
X163433400Y-97499000D02*
X161831400Y-97499000D01*
X161831400Y-96097000D01*
X163433400Y-96097000D01*
X163433400Y-97499000D01*
X163433400Y-97499000D01*
G37*
G36*
X151703221Y-95071713D02*
X151703224Y-95071714D01*
X151703225Y-95071714D01*
X151863639Y-95120375D01*
X151863641Y-95120376D01*
X151863644Y-95120377D01*
X152011478Y-95199395D01*
X152141059Y-95305741D01*
X152247405Y-95435322D01*
X152326423Y-95583156D01*
X152375087Y-95743579D01*
X152391517Y-95910400D01*
X152375087Y-96077221D01*
X152326423Y-96237644D01*
X152247405Y-96385478D01*
X152141059Y-96515059D01*
X152011478Y-96621405D01*
X151863644Y-96700423D01*
X151863641Y-96700424D01*
X151863639Y-96700425D01*
X151703225Y-96749086D01*
X151703224Y-96749086D01*
X151703221Y-96749087D01*
X151578204Y-96761400D01*
X151494596Y-96761400D01*
X151369579Y-96749087D01*
X151369576Y-96749086D01*
X151369575Y-96749086D01*
X151209161Y-96700425D01*
X151209159Y-96700424D01*
X151209156Y-96700423D01*
X151061322Y-96621405D01*
X150931741Y-96515059D01*
X150825395Y-96385478D01*
X150746377Y-96237644D01*
X150697713Y-96077221D01*
X150681283Y-95910400D01*
X150697713Y-95743579D01*
X150746377Y-95583156D01*
X150825395Y-95435322D01*
X150931741Y-95305741D01*
X151061322Y-95199395D01*
X151209156Y-95120377D01*
X151209159Y-95120376D01*
X151209161Y-95120375D01*
X151369575Y-95071714D01*
X151369576Y-95071714D01*
X151369579Y-95071713D01*
X151494596Y-95059400D01*
X151578204Y-95059400D01*
X151703221Y-95071713D01*
X151703221Y-95071713D01*
G37*
G36*
X159323221Y-95071713D02*
X159323224Y-95071714D01*
X159323225Y-95071714D01*
X159483639Y-95120375D01*
X159483641Y-95120376D01*
X159483644Y-95120377D01*
X159631478Y-95199395D01*
X159761059Y-95305741D01*
X159867405Y-95435322D01*
X159946423Y-95583156D01*
X159995087Y-95743579D01*
X160011517Y-95910400D01*
X159995087Y-96077221D01*
X159946423Y-96237644D01*
X159867405Y-96385478D01*
X159761059Y-96515059D01*
X159631478Y-96621405D01*
X159483644Y-96700423D01*
X159483641Y-96700424D01*
X159483639Y-96700425D01*
X159323225Y-96749086D01*
X159323224Y-96749086D01*
X159323221Y-96749087D01*
X159198204Y-96761400D01*
X159114596Y-96761400D01*
X158989579Y-96749087D01*
X158989576Y-96749086D01*
X158989575Y-96749086D01*
X158829161Y-96700425D01*
X158829159Y-96700424D01*
X158829156Y-96700423D01*
X158681322Y-96621405D01*
X158551741Y-96515059D01*
X158445395Y-96385478D01*
X158366377Y-96237644D01*
X158317713Y-96077221D01*
X158301283Y-95910400D01*
X158317713Y-95743579D01*
X158366377Y-95583156D01*
X158445395Y-95435322D01*
X158551741Y-95305741D01*
X158681322Y-95199395D01*
X158829156Y-95120377D01*
X158829159Y-95120376D01*
X158829161Y-95120375D01*
X158989575Y-95071714D01*
X158989576Y-95071714D01*
X158989579Y-95071713D01*
X159114596Y-95059400D01*
X159198204Y-95059400D01*
X159323221Y-95071713D01*
X159323221Y-95071713D01*
G37*
G36*
X166133400Y-94699000D02*
X164531400Y-94699000D01*
X164531400Y-93297000D01*
X166133400Y-93297000D01*
X166133400Y-94699000D01*
X166133400Y-94699000D01*
G37*
G36*
X163433400Y-94699000D02*
X161831400Y-94699000D01*
X161831400Y-93297000D01*
X163433400Y-93297000D01*
X163433400Y-94699000D01*
X163433400Y-94699000D01*
G37*
G36*
X151703221Y-92531713D02*
X151703224Y-92531714D01*
X151703225Y-92531714D01*
X151863639Y-92580375D01*
X151863641Y-92580376D01*
X151863644Y-92580377D01*
X152011478Y-92659395D01*
X152141059Y-92765741D01*
X152247405Y-92895322D01*
X152326423Y-93043156D01*
X152375087Y-93203579D01*
X152391517Y-93370400D01*
X152375087Y-93537221D01*
X152326423Y-93697644D01*
X152247405Y-93845478D01*
X152141059Y-93975059D01*
X152011478Y-94081405D01*
X151863644Y-94160423D01*
X151863641Y-94160424D01*
X151863639Y-94160425D01*
X151703225Y-94209086D01*
X151703224Y-94209086D01*
X151703221Y-94209087D01*
X151578204Y-94221400D01*
X151494596Y-94221400D01*
X151369579Y-94209087D01*
X151369576Y-94209086D01*
X151369575Y-94209086D01*
X151209161Y-94160425D01*
X151209159Y-94160424D01*
X151209156Y-94160423D01*
X151061322Y-94081405D01*
X150931741Y-93975059D01*
X150825395Y-93845478D01*
X150746377Y-93697644D01*
X150697713Y-93537221D01*
X150681283Y-93370400D01*
X150697713Y-93203579D01*
X150746377Y-93043156D01*
X150825395Y-92895322D01*
X150931741Y-92765741D01*
X151061322Y-92659395D01*
X151209156Y-92580377D01*
X151209159Y-92580376D01*
X151209161Y-92580375D01*
X151369575Y-92531714D01*
X151369576Y-92531714D01*
X151369579Y-92531713D01*
X151494596Y-92519400D01*
X151578204Y-92519400D01*
X151703221Y-92531713D01*
X151703221Y-92531713D01*
G37*
G36*
X159323221Y-92531713D02*
X159323224Y-92531714D01*
X159323225Y-92531714D01*
X159483639Y-92580375D01*
X159483641Y-92580376D01*
X159483644Y-92580377D01*
X159631478Y-92659395D01*
X159761059Y-92765741D01*
X159867405Y-92895322D01*
X159946423Y-93043156D01*
X159995087Y-93203579D01*
X160011517Y-93370400D01*
X159995087Y-93537221D01*
X159946423Y-93697644D01*
X159867405Y-93845478D01*
X159761059Y-93975059D01*
X159631478Y-94081405D01*
X159483644Y-94160423D01*
X159483641Y-94160424D01*
X159483639Y-94160425D01*
X159323225Y-94209086D01*
X159323224Y-94209086D01*
X159323221Y-94209087D01*
X159198204Y-94221400D01*
X159114596Y-94221400D01*
X158989579Y-94209087D01*
X158989576Y-94209086D01*
X158989575Y-94209086D01*
X158829161Y-94160425D01*
X158829159Y-94160424D01*
X158829156Y-94160423D01*
X158681322Y-94081405D01*
X158551741Y-93975059D01*
X158445395Y-93845478D01*
X158366377Y-93697644D01*
X158317713Y-93537221D01*
X158301283Y-93370400D01*
X158317713Y-93203579D01*
X158366377Y-93043156D01*
X158445395Y-92895322D01*
X158551741Y-92765741D01*
X158681322Y-92659395D01*
X158829156Y-92580377D01*
X158829159Y-92580376D01*
X158829161Y-92580375D01*
X158989575Y-92531714D01*
X158989576Y-92531714D01*
X158989579Y-92531713D01*
X159114596Y-92519400D01*
X159198204Y-92519400D01*
X159323221Y-92531713D01*
X159323221Y-92531713D01*
G37*
G36*
X166133400Y-91899000D02*
X164531400Y-91899000D01*
X164531400Y-90497000D01*
X166133400Y-90497000D01*
X166133400Y-91899000D01*
X166133400Y-91899000D01*
G37*
G36*
X163433400Y-91899000D02*
X161831400Y-91899000D01*
X161831400Y-90497000D01*
X163433400Y-90497000D01*
X163433400Y-91899000D01*
X163433400Y-91899000D01*
G37*
G36*
X159323221Y-89991713D02*
X159323224Y-89991714D01*
X159323225Y-89991714D01*
X159483639Y-90040375D01*
X159483641Y-90040376D01*
X159483644Y-90040377D01*
X159631478Y-90119395D01*
X159761059Y-90225741D01*
X159867405Y-90355322D01*
X159946423Y-90503156D01*
X159995087Y-90663579D01*
X160011517Y-90830400D01*
X159995087Y-90997221D01*
X159946423Y-91157644D01*
X159867405Y-91305478D01*
X159761059Y-91435059D01*
X159631478Y-91541405D01*
X159483644Y-91620423D01*
X159483641Y-91620424D01*
X159483639Y-91620425D01*
X159323225Y-91669086D01*
X159323224Y-91669086D01*
X159323221Y-91669087D01*
X159198204Y-91681400D01*
X159114596Y-91681400D01*
X158989579Y-91669087D01*
X158989576Y-91669086D01*
X158989575Y-91669086D01*
X158829161Y-91620425D01*
X158829159Y-91620424D01*
X158829156Y-91620423D01*
X158681322Y-91541405D01*
X158551741Y-91435059D01*
X158445395Y-91305478D01*
X158366377Y-91157644D01*
X158317713Y-90997221D01*
X158301283Y-90830400D01*
X158317713Y-90663579D01*
X158366377Y-90503156D01*
X158445395Y-90355322D01*
X158551741Y-90225741D01*
X158681322Y-90119395D01*
X158829156Y-90040377D01*
X158829159Y-90040376D01*
X158829161Y-90040375D01*
X158989575Y-89991714D01*
X158989576Y-89991714D01*
X158989579Y-89991713D01*
X159114596Y-89979400D01*
X159198204Y-89979400D01*
X159323221Y-89991713D01*
X159323221Y-89991713D01*
G37*
G36*
X151703221Y-89991713D02*
X151703224Y-89991714D01*
X151703225Y-89991714D01*
X151863639Y-90040375D01*
X151863641Y-90040376D01*
X151863644Y-90040377D01*
X152011478Y-90119395D01*
X152141059Y-90225741D01*
X152247405Y-90355322D01*
X152326423Y-90503156D01*
X152375087Y-90663579D01*
X152391517Y-90830400D01*
X152375087Y-90997221D01*
X152326423Y-91157644D01*
X152247405Y-91305478D01*
X152141059Y-91435059D01*
X152011478Y-91541405D01*
X151863644Y-91620423D01*
X151863641Y-91620424D01*
X151863639Y-91620425D01*
X151703225Y-91669086D01*
X151703224Y-91669086D01*
X151703221Y-91669087D01*
X151578204Y-91681400D01*
X151494596Y-91681400D01*
X151369579Y-91669087D01*
X151369576Y-91669086D01*
X151369575Y-91669086D01*
X151209161Y-91620425D01*
X151209159Y-91620424D01*
X151209156Y-91620423D01*
X151061322Y-91541405D01*
X150931741Y-91435059D01*
X150825395Y-91305478D01*
X150746377Y-91157644D01*
X150697713Y-90997221D01*
X150681283Y-90830400D01*
X150697713Y-90663579D01*
X150746377Y-90503156D01*
X150825395Y-90355322D01*
X150931741Y-90225741D01*
X151061322Y-90119395D01*
X151209156Y-90040377D01*
X151209159Y-90040376D01*
X151209161Y-90040375D01*
X151369575Y-89991714D01*
X151369576Y-89991714D01*
X151369579Y-89991713D01*
X151494596Y-89979400D01*
X151578204Y-89979400D01*
X151703221Y-89991713D01*
X151703221Y-89991713D01*
G37*
G36*
X159323221Y-87451713D02*
X159323224Y-87451714D01*
X159323225Y-87451714D01*
X159483639Y-87500375D01*
X159483641Y-87500376D01*
X159483644Y-87500377D01*
X159631478Y-87579395D01*
X159761059Y-87685741D01*
X159867405Y-87815322D01*
X159946423Y-87963156D01*
X159995087Y-88123579D01*
X160011517Y-88290400D01*
X159995087Y-88457221D01*
X159946423Y-88617644D01*
X159867405Y-88765478D01*
X159761059Y-88895059D01*
X159631478Y-89001405D01*
X159483644Y-89080423D01*
X159483641Y-89080424D01*
X159483639Y-89080425D01*
X159323225Y-89129086D01*
X159323224Y-89129086D01*
X159323221Y-89129087D01*
X159198204Y-89141400D01*
X159114596Y-89141400D01*
X158989579Y-89129087D01*
X158989576Y-89129086D01*
X158989575Y-89129086D01*
X158829161Y-89080425D01*
X158829159Y-89080424D01*
X158829156Y-89080423D01*
X158681322Y-89001405D01*
X158551741Y-88895059D01*
X158445395Y-88765478D01*
X158366377Y-88617644D01*
X158317713Y-88457221D01*
X158301283Y-88290400D01*
X158317713Y-88123579D01*
X158366377Y-87963156D01*
X158445395Y-87815322D01*
X158551741Y-87685741D01*
X158681322Y-87579395D01*
X158829156Y-87500377D01*
X158829159Y-87500376D01*
X158829161Y-87500375D01*
X158989575Y-87451714D01*
X158989576Y-87451714D01*
X158989579Y-87451713D01*
X159114596Y-87439400D01*
X159198204Y-87439400D01*
X159323221Y-87451713D01*
X159323221Y-87451713D01*
G37*
G36*
X151703221Y-87451713D02*
X151703224Y-87451714D01*
X151703225Y-87451714D01*
X151863639Y-87500375D01*
X151863641Y-87500376D01*
X151863644Y-87500377D01*
X152011478Y-87579395D01*
X152141059Y-87685741D01*
X152247405Y-87815322D01*
X152326423Y-87963156D01*
X152375087Y-88123579D01*
X152391517Y-88290400D01*
X152375087Y-88457221D01*
X152326423Y-88617644D01*
X152247405Y-88765478D01*
X152141059Y-88895059D01*
X152011478Y-89001405D01*
X151863644Y-89080423D01*
X151863641Y-89080424D01*
X151863639Y-89080425D01*
X151703225Y-89129086D01*
X151703224Y-89129086D01*
X151703221Y-89129087D01*
X151578204Y-89141400D01*
X151494596Y-89141400D01*
X151369579Y-89129087D01*
X151369576Y-89129086D01*
X151369575Y-89129086D01*
X151209161Y-89080425D01*
X151209159Y-89080424D01*
X151209156Y-89080423D01*
X151061322Y-89001405D01*
X150931741Y-88895059D01*
X150825395Y-88765478D01*
X150746377Y-88617644D01*
X150697713Y-88457221D01*
X150681283Y-88290400D01*
X150697713Y-88123579D01*
X150746377Y-87963156D01*
X150825395Y-87815322D01*
X150931741Y-87685741D01*
X151061322Y-87579395D01*
X151209156Y-87500377D01*
X151209159Y-87500376D01*
X151209161Y-87500375D01*
X151369575Y-87451714D01*
X151369576Y-87451714D01*
X151369579Y-87451713D01*
X151494596Y-87439400D01*
X151578204Y-87439400D01*
X151703221Y-87451713D01*
X151703221Y-87451713D01*
G37*
G36*
X163433400Y-89099000D02*
X161831400Y-89099000D01*
X161831400Y-87697000D01*
X163433400Y-87697000D01*
X163433400Y-89099000D01*
X163433400Y-89099000D01*
G37*
G36*
X166133400Y-89099000D02*
X164531400Y-89099000D01*
X164531400Y-87697000D01*
X166133400Y-87697000D01*
X166133400Y-89099000D01*
X166133400Y-89099000D01*
G37*
G36*
X159323221Y-84911713D02*
X159323224Y-84911714D01*
X159323225Y-84911714D01*
X159483639Y-84960375D01*
X159483641Y-84960376D01*
X159483644Y-84960377D01*
X159631478Y-85039395D01*
X159761059Y-85145741D01*
X159867405Y-85275322D01*
X159946423Y-85423156D01*
X159995087Y-85583579D01*
X160011517Y-85750400D01*
X159995087Y-85917221D01*
X159946423Y-86077644D01*
X159867405Y-86225478D01*
X159761059Y-86355059D01*
X159631478Y-86461405D01*
X159483644Y-86540423D01*
X159483641Y-86540424D01*
X159483639Y-86540425D01*
X159323225Y-86589086D01*
X159323224Y-86589086D01*
X159323221Y-86589087D01*
X159198204Y-86601400D01*
X159114596Y-86601400D01*
X158989579Y-86589087D01*
X158989576Y-86589086D01*
X158989575Y-86589086D01*
X158829161Y-86540425D01*
X158829159Y-86540424D01*
X158829156Y-86540423D01*
X158681322Y-86461405D01*
X158551741Y-86355059D01*
X158445395Y-86225478D01*
X158366377Y-86077644D01*
X158317713Y-85917221D01*
X158301283Y-85750400D01*
X158317713Y-85583579D01*
X158366377Y-85423156D01*
X158445395Y-85275322D01*
X158551741Y-85145741D01*
X158681322Y-85039395D01*
X158829156Y-84960377D01*
X158829159Y-84960376D01*
X158829161Y-84960375D01*
X158989575Y-84911714D01*
X158989576Y-84911714D01*
X158989579Y-84911713D01*
X159114596Y-84899400D01*
X159198204Y-84899400D01*
X159323221Y-84911713D01*
X159323221Y-84911713D01*
G37*
G36*
X151703221Y-84911713D02*
X151703224Y-84911714D01*
X151703225Y-84911714D01*
X151863639Y-84960375D01*
X151863641Y-84960376D01*
X151863644Y-84960377D01*
X152011478Y-85039395D01*
X152141059Y-85145741D01*
X152247405Y-85275322D01*
X152326423Y-85423156D01*
X152375087Y-85583579D01*
X152391517Y-85750400D01*
X152375087Y-85917221D01*
X152326423Y-86077644D01*
X152247405Y-86225478D01*
X152141059Y-86355059D01*
X152011478Y-86461405D01*
X151863644Y-86540423D01*
X151863641Y-86540424D01*
X151863639Y-86540425D01*
X151703225Y-86589086D01*
X151703224Y-86589086D01*
X151703221Y-86589087D01*
X151578204Y-86601400D01*
X151494596Y-86601400D01*
X151369579Y-86589087D01*
X151369576Y-86589086D01*
X151369575Y-86589086D01*
X151209161Y-86540425D01*
X151209159Y-86540424D01*
X151209156Y-86540423D01*
X151061322Y-86461405D01*
X150931741Y-86355059D01*
X150825395Y-86225478D01*
X150746377Y-86077644D01*
X150697713Y-85917221D01*
X150681283Y-85750400D01*
X150697713Y-85583579D01*
X150746377Y-85423156D01*
X150825395Y-85275322D01*
X150931741Y-85145741D01*
X151061322Y-85039395D01*
X151209156Y-84960377D01*
X151209159Y-84960376D01*
X151209161Y-84960375D01*
X151369575Y-84911714D01*
X151369576Y-84911714D01*
X151369579Y-84911713D01*
X151494596Y-84899400D01*
X151578204Y-84899400D01*
X151703221Y-84911713D01*
X151703221Y-84911713D01*
G37*
G36*
X163433400Y-86299000D02*
X161831400Y-86299000D01*
X161831400Y-84897000D01*
X163433400Y-84897000D01*
X163433400Y-86299000D01*
X163433400Y-86299000D01*
G37*
G36*
X166133400Y-86299000D02*
X164531400Y-86299000D01*
X164531400Y-84897000D01*
X166133400Y-84897000D01*
X166133400Y-86299000D01*
X166133400Y-86299000D01*
G37*
G36*
X151703221Y-82371713D02*
X151703224Y-82371714D01*
X151703225Y-82371714D01*
X151863639Y-82420375D01*
X151863641Y-82420376D01*
X151863644Y-82420377D01*
X152011478Y-82499395D01*
X152141059Y-82605741D01*
X152247405Y-82735322D01*
X152326423Y-82883156D01*
X152375087Y-83043579D01*
X152391517Y-83210400D01*
X152375087Y-83377221D01*
X152326423Y-83537644D01*
X152247405Y-83685478D01*
X152141059Y-83815059D01*
X152011478Y-83921405D01*
X151863644Y-84000423D01*
X151863641Y-84000424D01*
X151863639Y-84000425D01*
X151703225Y-84049086D01*
X151703224Y-84049086D01*
X151703221Y-84049087D01*
X151578204Y-84061400D01*
X151494596Y-84061400D01*
X151369579Y-84049087D01*
X151369576Y-84049086D01*
X151369575Y-84049086D01*
X151209161Y-84000425D01*
X151209159Y-84000424D01*
X151209156Y-84000423D01*
X151061322Y-83921405D01*
X150931741Y-83815059D01*
X150825395Y-83685478D01*
X150746377Y-83537644D01*
X150697713Y-83377221D01*
X150681283Y-83210400D01*
X150697713Y-83043579D01*
X150746377Y-82883156D01*
X150825395Y-82735322D01*
X150931741Y-82605741D01*
X151061322Y-82499395D01*
X151209156Y-82420377D01*
X151209159Y-82420376D01*
X151209161Y-82420375D01*
X151369575Y-82371714D01*
X151369576Y-82371714D01*
X151369579Y-82371713D01*
X151494596Y-82359400D01*
X151578204Y-82359400D01*
X151703221Y-82371713D01*
X151703221Y-82371713D01*
G37*
G36*
X159323221Y-82371713D02*
X159323224Y-82371714D01*
X159323225Y-82371714D01*
X159483639Y-82420375D01*
X159483641Y-82420376D01*
X159483644Y-82420377D01*
X159631478Y-82499395D01*
X159761059Y-82605741D01*
X159867405Y-82735322D01*
X159946423Y-82883156D01*
X159995087Y-83043579D01*
X160011517Y-83210400D01*
X159995087Y-83377221D01*
X159946423Y-83537644D01*
X159867405Y-83685478D01*
X159761059Y-83815059D01*
X159631478Y-83921405D01*
X159483644Y-84000423D01*
X159483641Y-84000424D01*
X159483639Y-84000425D01*
X159323225Y-84049086D01*
X159323224Y-84049086D01*
X159323221Y-84049087D01*
X159198204Y-84061400D01*
X159114596Y-84061400D01*
X158989579Y-84049087D01*
X158989576Y-84049086D01*
X158989575Y-84049086D01*
X158829161Y-84000425D01*
X158829159Y-84000424D01*
X158829156Y-84000423D01*
X158681322Y-83921405D01*
X158551741Y-83815059D01*
X158445395Y-83685478D01*
X158366377Y-83537644D01*
X158317713Y-83377221D01*
X158301283Y-83210400D01*
X158317713Y-83043579D01*
X158366377Y-82883156D01*
X158445395Y-82735322D01*
X158551741Y-82605741D01*
X158681322Y-82499395D01*
X158829156Y-82420377D01*
X158829159Y-82420376D01*
X158829161Y-82420375D01*
X158989575Y-82371714D01*
X158989576Y-82371714D01*
X158989579Y-82371713D01*
X159114596Y-82359400D01*
X159198204Y-82359400D01*
X159323221Y-82371713D01*
X159323221Y-82371713D01*
G37*
G36*
X164202220Y-83966420D02*
X163300220Y-83966420D01*
X163300220Y-81964420D01*
X164202220Y-81964420D01*
X164202220Y-83966420D01*
X164202220Y-83966420D01*
G37*
G36*
X166102220Y-83966420D02*
X165200220Y-83966420D01*
X165200220Y-81964420D01*
X166102220Y-81964420D01*
X166102220Y-83966420D01*
X166102220Y-83966420D01*
G37*
G36*
X159323221Y-79831713D02*
X159323224Y-79831714D01*
X159323225Y-79831714D01*
X159483639Y-79880375D01*
X159483641Y-79880376D01*
X159483644Y-79880377D01*
X159631478Y-79959395D01*
X159761059Y-80065741D01*
X159867405Y-80195322D01*
X159946423Y-80343156D01*
X159946424Y-80343159D01*
X159946425Y-80343161D01*
X159979305Y-80451553D01*
X159995087Y-80503579D01*
X160011517Y-80670400D01*
X159995087Y-80837221D01*
X159995086Y-80837224D01*
X159995086Y-80837225D01*
X159972707Y-80911000D01*
X159946423Y-80997644D01*
X159867405Y-81145478D01*
X159761059Y-81275059D01*
X159631478Y-81381405D01*
X159483644Y-81460423D01*
X159483641Y-81460424D01*
X159483639Y-81460425D01*
X159323225Y-81509086D01*
X159323224Y-81509086D01*
X159323221Y-81509087D01*
X159198204Y-81521400D01*
X159114596Y-81521400D01*
X158989579Y-81509087D01*
X158989576Y-81509086D01*
X158989575Y-81509086D01*
X158829161Y-81460425D01*
X158829159Y-81460424D01*
X158829156Y-81460423D01*
X158681322Y-81381405D01*
X158551741Y-81275059D01*
X158445395Y-81145478D01*
X158366377Y-80997644D01*
X158340094Y-80911000D01*
X158317714Y-80837225D01*
X158317714Y-80837224D01*
X158317713Y-80837221D01*
X158301283Y-80670400D01*
X158317713Y-80503579D01*
X158333495Y-80451553D01*
X158366375Y-80343161D01*
X158366376Y-80343159D01*
X158366377Y-80343156D01*
X158445395Y-80195322D01*
X158551741Y-80065741D01*
X158681322Y-79959395D01*
X158829156Y-79880377D01*
X158829159Y-79880376D01*
X158829161Y-79880375D01*
X158989575Y-79831714D01*
X158989576Y-79831714D01*
X158989579Y-79831713D01*
X159114596Y-79819400D01*
X159198204Y-79819400D01*
X159323221Y-79831713D01*
X159323221Y-79831713D01*
G37*
G36*
X152387400Y-81521400D02*
X150685400Y-81521400D01*
X150685400Y-79819400D01*
X152387400Y-79819400D01*
X152387400Y-81521400D01*
X152387400Y-81521400D01*
G37*
G36*
X165152220Y-80966420D02*
X164250220Y-80966420D01*
X164250220Y-78964420D01*
X165152220Y-78964420D01*
X165152220Y-80966420D01*
X165152220Y-80966420D01*
G37*
G36*
X131174443Y-79115519D02*
X131240627Y-79122037D01*
X131353853Y-79156384D01*
X131410467Y-79173557D01*
X131549087Y-79247652D01*
X131566991Y-79257222D01*
X131602729Y-79286552D01*
X131704186Y-79369814D01*
X131787448Y-79471271D01*
X131816778Y-79507009D01*
X131816779Y-79507011D01*
X131900443Y-79663533D01*
X131900443Y-79663534D01*
X131951963Y-79833373D01*
X131969359Y-80010000D01*
X131951963Y-80186627D01*
X131949325Y-80195322D01*
X131900443Y-80356467D01*
X131849619Y-80451551D01*
X131816778Y-80512991D01*
X131787448Y-80548729D01*
X131704186Y-80650186D01*
X131602729Y-80733448D01*
X131566991Y-80762778D01*
X131566989Y-80762779D01*
X131410467Y-80846443D01*
X131353853Y-80863616D01*
X131240627Y-80897963D01*
X131174442Y-80904482D01*
X131108260Y-80911000D01*
X131019740Y-80911000D01*
X130953558Y-80904482D01*
X130887373Y-80897963D01*
X130774147Y-80863616D01*
X130717533Y-80846443D01*
X130561011Y-80762779D01*
X130561009Y-80762778D01*
X130525271Y-80733448D01*
X130423814Y-80650186D01*
X130340552Y-80548729D01*
X130311222Y-80512991D01*
X130278381Y-80451551D01*
X130227557Y-80356467D01*
X130178675Y-80195322D01*
X130176037Y-80186627D01*
X130158641Y-80010000D01*
X130176037Y-79833373D01*
X130227557Y-79663534D01*
X130227557Y-79663533D01*
X130311221Y-79507011D01*
X130311222Y-79507009D01*
X130340552Y-79471271D01*
X130423814Y-79369814D01*
X130525271Y-79286552D01*
X130561009Y-79257222D01*
X130578913Y-79247652D01*
X130717533Y-79173557D01*
X130774147Y-79156384D01*
X130887373Y-79122037D01*
X130953557Y-79115519D01*
X131019740Y-79109000D01*
X131108260Y-79109000D01*
X131174443Y-79115519D01*
X131174443Y-79115519D01*
G37*
G36*
X129425000Y-80911000D02*
X127623000Y-80911000D01*
X127623000Y-79109000D01*
X129425000Y-79109000D01*
X129425000Y-80911000D01*
X129425000Y-80911000D01*
G37*
G36*
X138301485Y-78189996D02*
X138301487Y-78189997D01*
X138301488Y-78189997D01*
X138538255Y-78288069D01*
X138751342Y-78430449D01*
X138932551Y-78611658D01*
X139074931Y-78824745D01*
X139173004Y-79061515D01*
X139223000Y-79312861D01*
X139223000Y-79569139D01*
X139173004Y-79820485D01*
X139074931Y-80057255D01*
X138932551Y-80270342D01*
X138751342Y-80451551D01*
X138751339Y-80451553D01*
X138538255Y-80593931D01*
X138301488Y-80692003D01*
X138301487Y-80692003D01*
X138301485Y-80692004D01*
X138050139Y-80742000D01*
X137793861Y-80742000D01*
X137542515Y-80692004D01*
X137542513Y-80692003D01*
X137542512Y-80692003D01*
X137305745Y-80593931D01*
X137092661Y-80451553D01*
X137092658Y-80451551D01*
X136911449Y-80270342D01*
X136769069Y-80057255D01*
X136670996Y-79820485D01*
X136621000Y-79569139D01*
X136621000Y-79312861D01*
X136670996Y-79061515D01*
X136769069Y-78824745D01*
X136911449Y-78611658D01*
X137092658Y-78430449D01*
X137305745Y-78288069D01*
X137542512Y-78189997D01*
X137542513Y-78189997D01*
X137542515Y-78189996D01*
X137793861Y-78140000D01*
X138050139Y-78140000D01*
X138301485Y-78189996D01*
X138301485Y-78189996D01*
G37*
G36*
X157397400Y-78400000D02*
X155795400Y-78400000D01*
X155795400Y-77048000D01*
X157397400Y-77048000D01*
X157397400Y-78400000D01*
X157397400Y-78400000D01*
G37*
G36*
X154897400Y-78400000D02*
X153295400Y-78400000D01*
X153295400Y-77048000D01*
X154897400Y-77048000D01*
X154897400Y-78400000D01*
X154897400Y-78400000D01*
G37*
M02*
